LisuNew-Regular.ufo
<glyph name="exclam" format="2">
  <advance width="674"/>
  <unicode hex="0021"/>
  <outline>
    <contour>
      <point x="492" y="1032" type="qcurve"/>
      <point x="492" y="993"/>
      <point x="471" y="940" type="qcurve"/>
      <point x="446" y="874"/>
      <point x="442" y="850" type="qcurve"/>
      <point x="371" y="434" type="line"/>
      <point x="285" y="434" type="line"/>
      <point x="213" y="850" type="line"/>
      <point x="209" y="872"/>
      <point x="184" y="934" type="qcurve"/>
      <point x="166" y="983"/>
      <point x="166" y="1028" type="qcurve"/>
      <point x="166" y="1087"/>
      <point x="268" y="1159"/>
      <point x="330" y="1159" type="qcurve"/>
      <point x="389" y="1159"/>
      <point x="492" y="1090"/>
    </contour>
    <contour>
      <point x="453" y="72" type="qcurve"/>
      <point x="453" y="25"/>
      <point x="375" y="-45"/>
      <point x="328" y="-45" type="qcurve"/>
      <point x="281" y="-45"/>
      <point x="203" y="25"/>
      <point x="203" y="72" type="qcurve"/>
      <point x="203" y="121"/>
      <point x="279" y="190"/>
      <point x="328" y="190" type="qcurve"/>
      <point x="377" y="190"/>
      <point x="453" y="121"/>
    </contour>
  </outline>
</glyph>
<glyph name="quotedbl" format="2">
  <advance width="717"/>
  <unicode hex="0022"/>
  <outline>
    <contour>
      <point x="606" y="1001" type="line"/>
      <point x="606" y="954"/>
      <point x="575" y="801" type="qcurve"/>
      <point x="471" y="801" type="line"/>
      <point x="440" y="954"/>
      <point x="440" y="1001" type="qcurve"/>
      <point x="440" y="1204" type="line"/>
      <point x="606" y="1204" type="line"/>
    </contour>
    <contour>
      <point x="281" y="1001" type="line"/>
      <point x="281" y="952"/>
      <point x="252" y="801" type="qcurve"/>
      <point x="145" y="801" type="line"/>
      <point x="115" y="954"/>
      <point x="115" y="1001" type="qcurve"/>
      <point x="115" y="1204" type="line"/>
      <point x="281" y="1204" type="line"/>
    </contour>
  </outline>
</glyph>
<glyph name="numbersign" format="2">
  <advance width="1006"/>
  <unicode hex="0023"/>
  <outline>
    <contour>
      <point x="905" y="291" type="line"/>
      <point x="682" y="291" type="line"/>
      <point x="625" y="-18" type="line"/>
      <point x="485" y="-18" type="line"/>
      <point x="545" y="291" type="line"/>
      <point x="360" y="291" type="line"/>
      <point x="295" y="-18" type="line"/>
      <point x="150" y="-18" type="line"/>
      <point x="215" y="291" type="line"/>
      <point x="100" y="291" type="line"/>
      <point x="100" y="434" type="line"/>
      <point x="246" y="434" type="line"/>
      <point x="291" y="649" type="line"/>
      <point x="100" y="649" type="line"/>
      <point x="100" y="791" type="line"/>
      <point x="317" y="791" type="line"/>
      <point x="379" y="1100" type="line"/>
      <point x="520" y="1100" type="line"/>
      <point x="459" y="791" type="line"/>
      <point x="645" y="791" type="line"/>
      <point x="709" y="1100" type="line"/>
      <point x="846" y="1100" type="line"/>
      <point x="786" y="791" type="line"/>
      <point x="905" y="791" type="line"/>
      <point x="905" y="649" type="line"/>
      <point x="760" y="649" type="line"/>
      <point x="711" y="428" type="line"/>
      <point x="905" y="428" type="line"/>
    </contour>
    <contour>
      <point x="616" y="649" type="line"/>
      <point x="428" y="649" type="line"/>
      <point x="385" y="428" type="line"/>
      <point x="571" y="428" type="line"/>
    </contour>
  </outline>
</glyph>
<glyph name="dollar" format="2">
  <advance width="901"/>
  <unicode hex="0024"/>
  <outline>
    <contour>
      <point x="815" y="313" type="qcurve"/>
      <point x="815" y="184"/>
      <point x="645" y="-6"/>
      <point x="516" y="-23" type="qcurve"/>
      <point x="516" y="-156" type="line"/>
      <point x="406" y="-156" type="line"/>
      <point x="406" y="-27" type="line"/>
      <point x="119" y="25"/>
      <point x="100" y="322" type="qcurve"/>
      <point x="258" y="350" type="line"/>
      <point x="268" y="184"/>
      <point x="406" y="117" type="qcurve"/>
      <point x="406" y="496" type="line"/>
      <point x="121" y="563"/>
      <point x="121" y="788" type="qcurve"/>
      <point x="121" y="913"/>
      <point x="203" y="997" type="qcurve"/>
      <point x="279" y="1077"/>
      <point x="406" y="1098" type="qcurve"/>
      <point x="406" y="1159" type="line"/>
      <point x="516" y="1159" type="line"/>
      <point x="516" y="1098" type="line"/>
      <point x="743" y="1059"/>
      <point x="795" y="807" type="qcurve"/>
      <point x="631" y="782" type="line"/>
      <point x="618" y="881"/>
      <point x="516" y="956" type="qcurve"/>
      <point x="516" y="635" type="line"/>
      <point x="815" y="557"/>
    </contour>
    <contour>
      <point x="406" y="657" type="qcurve"/>
      <point x="406" y="952" type="line"/>
      <point x="283" y="905"/>
      <point x="283" y="797" type="qcurve"/>
      <point x="283" y="717"/>
    </contour>
    <contour>
      <point x="651" y="303" type="qcurve"/>
      <point x="651" y="410"/>
      <point x="516" y="469" type="qcurve"/>
      <point x="516" y="117" type="line"/>
      <point x="651" y="184"/>
    </contour>
  </outline>
</glyph>
<glyph name="percent" format="2">
  <advance width="1348"/>
  <unicode hex="0025"/>
  <outline>
    <contour>
      <point x="1262" y="254" type="qcurve"/>
      <point x="1262" y="137"/>
      <point x="1198" y="53" type="qcurve"/>
      <point x="1128" y="-39"/>
      <point x="1016" y="-39" type="qcurve"/>
      <point x="901" y="-39"/>
      <point x="836" y="57" type="qcurve"/>
      <point x="778" y="141"/>
      <point x="778" y="262" type="qcurve"/>
      <point x="778" y="375"/>
      <point x="840" y="457" type="qcurve"/>
      <point x="907" y="549"/>
      <point x="1016" y="549" type="qcurve"/>
      <point x="1128" y="549"/>
      <point x="1198" y="455" type="qcurve"/>
      <point x="1262" y="371"/>
    </contour>
    <contour>
      <point x="1053" y="1100" type="line"/>
      <point x="461" y="-39" type="line"/>
      <point x="311" y="-39" type="line"/>
      <point x="903" y="1100" type="line"/>
    </contour>
    <contour>
      <point x="586" y="803" type="qcurve"/>
      <point x="586" y="686"/>
      <point x="522" y="602" type="qcurve"/>
      <point x="453" y="510"/>
      <point x="340" y="510" type="qcurve"/>
      <point x="223" y="510"/>
      <point x="158" y="606" type="qcurve"/>
      <point x="100" y="688"/>
      <point x="100" y="811" type="qcurve"/>
      <point x="100" y="930"/>
      <point x="160" y="1010" type="qcurve"/>
      <point x="225" y="1100"/>
      <point x="340" y="1100" type="qcurve"/>
      <point x="453" y="1100"/>
      <point x="522" y="1006" type="qcurve"/>
      <point x="586" y="920"/>
    </contour>
    <contour>
      <point x="1116" y="260" type="qcurve"/>
      <point x="1116" y="424"/>
      <point x="1020" y="424" type="qcurve"/>
      <point x="926" y="424"/>
      <point x="926" y="258" type="qcurve"/>
      <point x="926" y="84"/>
      <point x="1022" y="84" type="qcurve"/>
      <point x="1116" y="84"/>
    </contour>
    <contour>
      <point x="436" y="791" type="qcurve"/>
      <point x="436" y="975"/>
      <point x="344" y="975" type="qcurve"/>
      <point x="248" y="975"/>
      <point x="248" y="805" type="qcurve"/>
      <point x="248" y="633"/>
      <point x="344" y="633" type="qcurve"/>
      <point x="436" y="633"/>
    </contour>
  </outline>
</glyph>
<glyph name="ampersand" format="2">
  <advance width="1051"/>
  <unicode hex="0026"/>
  <outline>
    <contour>
      <point x="1004" y="106" type="qcurve"/>
      <point x="899" y="-18" type="line"/>
      <point x="817" y="35"/>
      <point x="737" y="123" type="qcurve"/>
      <point x="600" y="-6"/>
      <point x="444" y="-6" type="qcurve"/>
      <point x="307" y="-6"/>
      <point x="104" y="178"/>
      <point x="104" y="313" type="qcurve"/>
      <point x="104" y="494"/>
      <point x="338" y="631" type="qcurve"/>
      <point x="231" y="754"/>
      <point x="231" y="850" type="qcurve"/>
      <point x="231" y="956"/>
      <point x="397" y="1100"/>
      <point x="504" y="1100" type="qcurve"/>
      <point x="604" y="1100"/>
      <point x="758" y="958"/>
      <point x="758" y="860" type="qcurve"/>
      <point x="758" y="717"/>
      <point x="571" y="602" type="qcurve"/>
      <point x="727" y="401" type="line"/>
      <point x="756" y="485"/>
      <point x="768" y="541" type="qcurve"/>
      <point x="932" y="502" type="line"/>
      <point x="897" y="365"/>
      <point x="838" y="262" type="qcurve"/>
      <point x="911" y="172"/>
    </contour>
    <contour>
      <point x="594" y="856" type="qcurve"/>
      <point x="594" y="897"/>
      <point x="537" y="958"/>
      <point x="496" y="958" type="qcurve"/>
      <point x="457" y="958"/>
      <point x="395" y="901"/>
      <point x="395" y="862" type="qcurve"/>
      <point x="395" y="809"/>
      <point x="483" y="715" type="qcurve"/>
      <point x="594" y="774"/>
    </contour>
    <contour>
      <point x="637" y="248" type="qcurve"/>
      <point x="426" y="514" type="line"/>
      <point x="274" y="424"/>
      <point x="274" y="322" type="qcurve"/>
      <point x="274" y="250"/>
      <point x="373" y="139"/>
      <point x="444" y="139" type="qcurve"/>
      <point x="549" y="139"/>
    </contour>
  </outline>
</glyph>
<glyph name="quotesingle" format="2">
  <advance width="392"/>
  <unicode hex="0027"/>
  <outline>
    <contour>
      <point x="279" y="1001" type="line"/>
      <point x="279" y="954"/>
      <point x="248" y="801" type="qcurve"/>
      <point x="144" y="801" type="line"/>
      <point x="113" y="954"/>
      <point x="113" y="1001" type="qcurve"/>
      <point x="113" y="1204" type="line"/>
      <point x="279" y="1204" type="line"/>
    </contour>
  </outline>
</glyph>
<glyph name="parenleft" format="2">
  <advance width="731"/>
  <unicode hex="0028"/>
  <outline>
    <contour>
      <point x="588" y="-238" type="qcurve"/>
      <point x="477" y="-238" type="line"/>
      <point x="203" y="158"/>
      <point x="203" y="520" type="qcurve"/>
      <point x="203" y="850"/>
      <point x="477" y="1260" type="qcurve"/>
      <point x="586" y="1260" type="line"/>
      <point x="367" y="825"/>
      <point x="367" y="510" type="qcurve"/>
      <point x="367" y="172"/>
    </contour>
  </outline>
</glyph>
<glyph name="parenright" format="2">
  <advance width="731"/>
  <unicode hex="0029"/>
  <outline>
    <contour>
      <point x="573" y="512" type="qcurve"/>
      <point x="573" y="158"/>
      <point x="301" y="-238" type="qcurve"/>
      <point x="190" y="-238" type="line"/>
      <point x="412" y="174"/>
      <point x="412" y="510" type="qcurve"/>
      <point x="412" y="844"/>
      <point x="188" y="1260" type="qcurve"/>
      <point x="301" y="1260" type="line"/>
      <point x="573" y="850"/>
    </contour>
  </outline>
</glyph>
<glyph name="asterisk" format="2">
  <advance width="754"/>
  <unicode hex="002A"/>
  <outline>
    <contour>
      <point x="678" y="1028" type="line"/>
      <point x="647" y="940" type="line"/>
      <point x="565" y="907"/>
      <point x="477" y="891" type="qcurve"/>
      <point x="541" y="813"/>
      <point x="594" y="758" type="qcurve"/>
      <point x="561" y="670" type="line"/>
      <point x="473" y="676" type="line"/>
      <point x="422" y="739"/>
      <point x="379" y="821" type="qcurve"/>
      <point x="348" y="770"/>
      <point x="279" y="674" type="qcurve"/>
      <point x="180" y="655" type="line"/>
      <point x="164" y="756" type="line"/>
      <point x="195" y="793"/>
      <point x="279" y="891" type="qcurve"/>
      <point x="188" y="911"/>
      <point x="106" y="934" type="qcurve"/>
      <point x="72" y="1028" type="line"/>
      <point x="154" y="1071" type="line"/>
      <point x="215" y="1051"/>
      <point x="313" y="1012" type="qcurve"/>
      <point x="307" y="1092"/>
      <point x="305" y="1186" type="qcurve"/>
      <point x="381" y="1257" type="line"/>
      <point x="449" y="1188" type="line"/>
      <point x="444" y="1104"/>
      <point x="436" y="1008" type="qcurve"/>
      <point x="508" y="1040"/>
      <point x="602" y="1073" type="qcurve"/>
    </contour>
  </outline>
</glyph>
<glyph name="hyphen" format="2">
  <advance width="885"/>
  <unicode hex="002D"/>
  <outline>
    <contour>
      <point x="721" y="434" type="line"/>
      <point x="164" y="434" type="line"/>
      <point x="164" y="606" type="line"/>
      <point x="721" y="606" type="line"/>
    </contour>
  </outline>
</glyph>
<glyph name="zero" format="2">
  <advance width="971"/>
  <unicode hex="0030"/>
  <outline>
    <contour>
      <point x="838" y="537" type="qcurve"/>
      <point x="838" y="324"/>
      <point x="768" y="178" type="qcurve"/>
      <point x="674" y="-16"/>
      <point x="487" y="-16" type="qcurve"/>
      <point x="299" y="-16"/>
      <point x="205" y="180" type="qcurve"/>
      <point x="133" y="330"/>
      <point x="133" y="541" type="qcurve"/>
      <point x="133" y="754"/>
      <point x="205" y="905" type="qcurve"/>
      <point x="299" y="1104"/>
      <point x="485" y="1104" type="qcurve"/>
      <point x="674" y="1104"/>
      <point x="768" y="903" type="qcurve"/>
      <point x="838" y="754"/>
    </contour>
    <contour>
      <point x="682" y="541" type="qcurve"/>
      <point x="682" y="948"/>
      <point x="483" y="948" type="qcurve"/>
      <point x="291" y="948"/>
      <point x="291" y="567" type="qcurve"/>
      <point x="291" y="137"/>
      <point x="485" y="137" type="qcurve"/>
      <point x="682" y="137"/>
    </contour>
  </outline>
</glyph>
<glyph name="two" format="2">
  <advance width="971"/>
  <unicode hex="0032"/>
  <outline>
    <contour>
      <point x="848" y="4" type="line"/>
      <point x="133" y="4" type="line"/>
      <point x="133" y="106" type="line"/>
      <point x="133" y="190"/>
      <point x="276" y="317" type="qcurve"/>
      <point x="367" y="393"/>
      <point x="543" y="549" type="qcurve"/>
      <point x="686" y="680"/>
      <point x="686" y="795" type="qcurve"/>
      <point x="686" y="862"/>
      <point x="578" y="946"/>
      <point x="508" y="946" type="qcurve"/>
      <point x="422" y="946"/>
      <point x="365" y="901" type="qcurve"/>
      <point x="301" y="852"/>
      <point x="293" y="770" type="qcurve"/>
      <point x="141" y="784" type="line"/>
      <point x="156" y="930"/>
      <point x="362" y="1100"/>
      <point x="510" y="1100" type="qcurve"/>
      <point x="643" y="1100"/>
      <point x="743" y="1020" type="qcurve"/>
      <point x="848" y="934"/>
      <point x="848" y="803" type="qcurve"/>
      <point x="848" y="657"/>
      <point x="729" y="518" type="qcurve"/>
      <point x="682" y="463"/>
      <point x="498" y="299" type="qcurve"/>
      <point x="434" y="242"/>
      <point x="348" y="162" type="qcurve"/>
      <point x="848" y="162" type="line"/>
    </contour>
  </outline>
</glyph>
<glyph name="three" format="2">
  <advance width="971"/>
  <unicode hex="0033"/>
  <outline>
    <contour>
      <point x="858" y="334" type="qcurve"/>
      <point x="858" y="186"/>
      <point x="643" y="-14"/>
      <point x="496" y="-14" type="qcurve"/>
      <point x="350" y="-14"/>
      <point x="162" y="168"/>
      <point x="147" y="313" type="qcurve"/>
      <point x="311" y="338" type="line"/>
      <point x="324" y="137"/>
      <point x="496" y="137" type="qcurve"/>
      <point x="575" y="137"/>
      <point x="696" y="248"/>
      <point x="696" y="328" type="qcurve"/>
      <point x="696" y="408"/>
      <point x="586" y="506"/>
      <point x="504" y="506" type="qcurve"/>
      <point x="487" y="506"/>
      <point x="424" y="502"/>
      <point x="408" y="502" type="qcurve"/>
      <point x="408" y="635" type="line"/>
      <point x="434" y="633"/>
      <point x="483" y="633" type="qcurve"/>
      <point x="559" y="633"/>
      <point x="649" y="733"/>
      <point x="649" y="811" type="qcurve"/>
      <point x="649" y="870"/>
      <point x="553" y="946"/>
      <point x="492" y="946" type="qcurve"/>
      <point x="332" y="946"/>
      <point x="295" y="788" type="qcurve"/>
      <point x="150" y="807" type="line"/>
      <point x="174" y="934"/>
      <point x="362" y="1100"/>
      <point x="489" y="1100" type="qcurve"/>
      <point x="614" y="1100"/>
      <point x="809" y="932"/>
      <point x="809" y="807" type="qcurve"/>
      <point x="809" y="680"/>
      <point x="696" y="588" type="qcurve"/>
      <point x="858" y="498"/>
    </contour>
  </outline>
</glyph>
<glyph name="five" format="2">
  <advance width="971"/>
  <unicode hex="0035"/>
  <outline>
    <contour>
      <point x="831" y="367" type="qcurve"/>
      <point x="831" y="201"/>
      <point x="629" y="-25"/>
      <point x="465" y="-25" type="qcurve"/>
      <point x="236" y="-25"/>
      <point x="133" y="211" type="qcurve"/>
      <point x="293" y="254" type="line"/>
      <point x="313" y="197"/>
      <point x="418" y="123"/>
      <point x="477" y="123" type="qcurve"/>
      <point x="567" y="123"/>
      <point x="623" y="197" type="qcurve"/>
      <point x="674" y="264"/>
      <point x="674" y="356" type="qcurve"/>
      <point x="674" y="453"/>
      <point x="563" y="594"/>
      <point x="469" y="594" type="qcurve"/>
      <point x="375" y="594"/>
      <point x="297" y="498" type="qcurve"/>
      <point x="147" y="518" type="line"/>
      <point x="250" y="1090" type="line"/>
      <point x="793" y="1090" type="line"/>
      <point x="793" y="930" type="line"/>
      <point x="379" y="930" type="line"/>
      <point x="338" y="705" type="line"/>
      <point x="440" y="750"/>
      <point x="504" y="750" type="qcurve"/>
      <point x="653" y="750"/>
      <point x="745" y="629" type="qcurve"/>
      <point x="831" y="518"/>
    </contour>
  </outline>
</glyph>
<glyph name="six" format="2">
  <advance width="971"/>
  <unicode hex="0036"/>
  <outline>
    <contour>
      <point x="846" y="336" type="qcurve"/>
      <point x="846" y="180"/>
      <point x="662" y="-18"/>
      <point x="508" y="-18" type="qcurve"/>
      <point x="307" y="-18"/>
      <point x="211" y="141" type="qcurve"/>
      <point x="133" y="270"/>
      <point x="133" y="485" type="qcurve"/>
      <point x="133" y="725"/>
      <point x="207" y="887" type="qcurve"/>
      <point x="307" y="1106"/>
      <point x="518" y="1106" type="qcurve"/>
      <point x="633" y="1106"/>
      <point x="799" y="979"/>
      <point x="829" y="868" type="qcurve"/>
      <point x="674" y="825" type="line"/>
      <point x="659" y="881"/>
      <point x="573" y="952"/>
      <point x="518" y="952" type="qcurve"/>
      <point x="414" y="952"/>
      <point x="352" y="823" type="qcurve"/>
      <point x="305" y="725"/>
      <point x="297" y="602" type="qcurve"/>
      <point x="391" y="692"/>
      <point x="512" y="692" type="qcurve"/>
      <point x="662" y="692"/>
      <point x="846" y="487"/>
    </contour>
    <contour>
      <point x="686" y="340" type="qcurve"/>
      <point x="686" y="422"/>
      <point x="582" y="541"/>
      <point x="502" y="541" type="qcurve"/>
      <point x="420" y="541"/>
      <point x="313" y="420"/>
      <point x="313" y="336" type="qcurve"/>
      <point x="313" y="254"/>
      <point x="418" y="131"/>
      <point x="498" y="131" type="qcurve"/>
      <point x="582" y="131"/>
      <point x="686" y="254"/>
    </contour>
  </outline>
</glyph>
<glyph name="seven" format="2">
  <advance width="971"/>
  <unicode hex="0037"/>
  <outline>
    <contour>
      <point x="825" y="967" type="line"/>
      <point x="479" y="528"/>
      <point x="436" y="0" type="qcurve"/>
      <point x="276" y="0" type="line"/>
      <point x="317" y="524"/>
      <point x="606" y="926" type="qcurve"/>
      <point x="133" y="926" type="line"/>
      <point x="133" y="1087" type="line"/>
      <point x="825" y="1087" type="line"/>
    </contour>
  </outline>
</glyph>
<glyph name="eight" format="2">
  <advance width="971"/>
  <unicode hex="0038"/>
  <outline>
    <contour>
      <point x="846" y="299" type="curve" smooth="yes"/>
      <point x="846" y="114"/>
      <point x="678" y="-20"/>
      <point x="489" y="-20" type="curve" smooth="yes"/>
      <point x="395" y="-20"/>
      <point x="313" y="10"/>
      <point x="244" y="70" type="curve" smooth="yes"/>
      <point x="170" y="133"/>
      <point x="133" y="210"/>
      <point x="133" y="303" type="curve" smooth="yes"/>
      <point x="133" y="426"/>
      <point x="187" y="521"/>
      <point x="295" y="588" type="curve"/>
      <point x="217" y="644"/>
      <point x="178" y="720"/>
      <point x="178" y="815" type="curve" smooth="yes"/>
      <point x="178" y="982"/>
      <point x="320" y="1102"/>
      <point x="487" y="1102" type="curve" smooth="yes"/>
      <point x="659" y="1102"/>
      <point x="803" y="980"/>
      <point x="803" y="811" type="curve" smooth="yes"/>
      <point x="803" y="725"/>
      <point x="765" y="649"/>
      <point x="688" y="582" type="curve"/>
      <point x="793" y="516"/>
      <point x="846" y="422"/>
    </contour>
    <contour>
      <point x="643" y="805" type="curve" smooth="yes"/>
      <point x="643" y="892"/>
      <point x="577" y="961"/>
      <point x="489" y="961" type="curve" smooth="yes"/>
      <point x="402" y="961"/>
      <point x="334" y="892"/>
      <point x="334" y="805" type="curve" smooth="yes"/>
      <point x="334" y="722"/>
      <point x="404" y="651"/>
      <point x="485" y="651" type="curve" smooth="yes"/>
      <point x="573" y="651"/>
      <point x="643" y="717"/>
    </contour>
    <contour>
      <point x="686" y="311" type="curve" smooth="yes"/>
      <point x="686" y="423"/>
      <point x="599" y="510"/>
      <point x="487" y="510" type="curve" smooth="yes"/>
      <point x="379" y="510"/>
      <point x="291" y="424"/>
      <point x="291" y="315" type="curve" smooth="yes"/>
      <point x="291" y="206"/>
      <point x="383" y="121"/>
      <point x="492" y="121" type="curve" smooth="yes"/>
      <point x="595" y="121"/>
      <point x="686" y="207"/>
    </contour>
  </outline>
</glyph>
<glyph name="nine" format="2">
  <advance width="971"/>
  <unicode hex="0039"/>
  <outline>
    <contour>
      <point x="844" y="571" type="curve" smooth="yes"/>
      <point x="844" y="166"/>
      <point x="716" y="-37"/>
      <point x="459" y="-37" type="curve" smooth="yes"/>
      <point x="298" y="-37"/>
      <point x="170" y="59"/>
      <point x="154" y="215" type="curve"/>
      <point x="303" y="231" type="line"/>
      <point x="311" y="163"/>
      <point x="378" y="111"/>
      <point x="446" y="111" type="curve" smooth="yes"/>
      <point x="524" y="111"/>
      <point x="586" y="151"/>
      <point x="633" y="231" type="curve" smooth="yes"/>
      <point x="668" y="294"/>
      <point x="686" y="370"/>
      <point x="686" y="459" type="curve" smooth="yes"/>
      <point x="686" y="483" type="line"/>
      <point x="633" y="420"/>
      <point x="556" y="389"/>
      <point x="457" y="389" type="curve" smooth="yes"/>
      <point x="262" y="389"/>
      <point x="133" y="542"/>
      <point x="133" y="735" type="curve" smooth="yes"/>
      <point x="133" y="935"/>
      <point x="275" y="1104"/>
      <point x="471" y="1104" type="curve" smooth="yes"/>
      <point x="608" y="1104"/>
      <point x="707" y="1046"/>
      <point x="770" y="930" type="curve" smooth="yes"/>
      <point x="819" y="840"/>
      <point x="844" y="720"/>
    </contour>
    <contour>
      <point x="664" y="741" type="curve" smooth="yes"/>
      <point x="664" y="858"/>
      <point x="584" y="958"/>
      <point x="469" y="958" type="curve" smooth="yes"/>
      <point x="360" y="958"/>
      <point x="287" y="857"/>
      <point x="287" y="745" type="curve" smooth="yes"/>
      <point x="287" y="628"/>
      <point x="360" y="530"/>
      <point x="475" y="530" type="curve" smooth="yes"/>
      <point x="582" y="530"/>
      <point x="664" y="632"/>
    </contour>
  </outline>
</glyph>
<glyph name="question" format="2">
  <advance width="936"/>
  <unicode hex="003F"/>
  <outline>
    <contour>
      <point x="809" y="877" type="qcurve"/>
      <point x="809" y="731"/>
      <point x="739" y="655" type="qcurve"/>
      <point x="694" y="618"/>
      <point x="608" y="543" type="qcurve"/>
      <point x="537" y="475"/>
      <point x="535" y="338" type="qcurve"/>
      <point x="391" y="338" type="line"/>
      <point x="389" y="362"/>
      <point x="389" y="387" type="qcurve"/>
      <point x="389" y="496"/>
      <point x="459" y="578" type="qcurve"/>
      <point x="502" y="623"/>
      <point x="588" y="715" type="qcurve"/>
      <point x="657" y="791"/>
      <point x="657" y="870" type="qcurve"/>
      <point x="657" y="942"/>
      <point x="543" y="1040"/>
      <point x="469" y="1040" type="qcurve"/>
      <point x="305" y="1040"/>
      <point x="274" y="829" type="qcurve"/>
      <point x="123" y="848" type="line"/>
      <point x="143" y="997"/>
      <point x="319" y="1174"/>
      <point x="467" y="1174" type="qcurve"/>
      <point x="602" y="1174"/>
      <point x="700" y="1094" type="qcurve"/>
      <point x="809" y="1008"/>
    </contour>
    <contour>
      <point x="573" y="92" type="qcurve"/>
      <point x="573" y="49"/>
      <point x="508" y="-14"/>
      <point x="465" y="-14" type="qcurve"/>
      <point x="424" y="-14"/>
      <point x="358" y="51"/>
      <point x="358" y="92" type="qcurve"/>
      <point x="358" y="133"/>
      <point x="424" y="199"/>
      <point x="465" y="199" type="qcurve"/>
      <point x="508" y="199"/>
      <point x="573" y="135"/>
    </contour>
  </outline>
</glyph>
<glyph name="at" format="2">
  <advance width="1559"/>
  <unicode hex="0040"/>
  <outline>
    <contour>
      <point x="1405" y="203" type="line"/>
      <point x="1323" y="43"/>
      <point x="1159" y="-41" type="qcurve"/>
      <point x="1008" y="-119"/>
      <point x="817" y="-119" type="qcurve"/>
      <point x="528" y="-119"/>
      <point x="350" y="33" type="qcurve"/>
      <point x="160" y="193"/>
      <point x="160" y="477" type="qcurve"/>
      <point x="160" y="768"/>
      <point x="537" y="1155"/>
      <point x="827" y="1155" type="qcurve"/>
      <point x="1044" y="1155"/>
      <point x="1364" y="848"/>
      <point x="1364" y="633" type="qcurve"/>
      <point x="1364" y="453"/>
      <point x="1257" y="311" type="qcurve"/>
      <point x="1139" y="158"/>
      <point x="965" y="158" type="qcurve"/>
      <point x="881" y="158"/>
      <point x="827" y="240" type="qcurve"/>
      <point x="741" y="158"/>
      <point x="647" y="158" type="qcurve"/>
      <point x="537" y="158"/>
      <point x="467" y="258" type="qcurve"/>
      <point x="403" y="348"/>
      <point x="403" y="463" type="qcurve"/>
      <point x="403" y="621"/>
      <point x="496" y="748" type="qcurve"/>
      <point x="596" y="889"/>
      <point x="750" y="889" type="qcurve"/>
      <point x="844" y="889"/>
      <point x="932" y="797" type="qcurve"/>
      <point x="950" y="905" type="line"/>
      <point x="1044" y="985" type="line"/>
      <point x="975" y="1032"/>
      <point x="922" y="1032" type="qcurve"/>
      <point x="901" y="1032"/>
      <point x="823" y="1026"/>
      <point x="803" y="1026" type="qcurve"/>
      <point x="575" y="1026"/>
      <point x="285" y="715"/>
      <point x="285" y="485" type="qcurve"/>
      <point x="285" y="252"/>
      <point x="438" y="127" type="qcurve"/>
      <point x="580" y="10"/>
      <point x="817" y="10" type="qcurve"/>
      <point x="1114" y="10"/>
      <point x="1257" y="203" type="qcurve"/>
    </contour>
    <contour>
      <point x="1237" y="637" type="qcurve"/>
      <point x="1237" y="715"/>
      <point x="1184" y="815" type="qcurve"/>
      <point x="1137" y="905"/>
      <point x="1073" y="969" type="qcurve"/>
      <point x="1059" y="907"/>
      <point x="1053" y="788" type="qcurve"/>
      <point x="1047" y="664"/>
      <point x="1034" y="606" type="qcurve"/>
      <point x="1016" y="516"/>
      <point x="979" y="305" type="qcurve"/>
      <point x="1014" y="291" type="line"/>
      <point x="1118" y="328"/>
      <point x="1180" y="428" type="qcurve"/>
      <point x="1237" y="522"/>
    </contour>
    <contour>
      <point x="889" y="594" type="qcurve"/>
      <point x="889" y="659"/>
      <point x="856" y="707" type="qcurve"/>
      <point x="819" y="762"/>
      <point x="758" y="762" type="qcurve"/>
      <point x="657" y="762"/>
      <point x="600" y="653" type="qcurve"/>
      <point x="553" y="565"/>
      <point x="553" y="453" type="qcurve"/>
      <point x="553" y="389"/>
      <point x="580" y="342" type="qcurve"/>
      <point x="612" y="285"/>
      <point x="672" y="285" type="qcurve"/>
      <point x="774" y="285"/>
      <point x="836" y="393" type="qcurve"/>
      <point x="889" y="483"/>
    </contour>
  </outline>
</glyph>
<glyph name="A" format="2">
  <advance width="946"/>
  <unicode hex="0041"/>
  <outline>
    <contour>
      <point x="897" y="166" type="line"/>
      <point x="780" y="166" type="line"/>
      <point x="719" y="313" type="line"/>
      <point x="377" y="313" type="line"/>
      <point x="324" y="166" type="line"/>
      <point x="205" y="166" type="line"/>
      <point x="477" y="926" type="line"/>
      <point x="600" y="926" type="line"/>
    </contour>
    <contour>
      <point x="682" y="414" type="line"/>
      <point x="539" y="778" type="line"/>
      <point x="475" y="594"/>
      <point x="416" y="414" type="qcurve"/>
    </contour>
  </outline>
</glyph>
<glyph name="B" format="2">
  <advance width="850"/>
  <unicode hex="0042"/>
  <outline>
    <contour>
      <point x="778" y="383" type="qcurve"/>
      <point x="778" y="166"/>
      <point x="506" y="166" type="qcurve"/>
      <point x="229" y="166" type="line"/>
      <point x="229" y="926" type="line"/>
      <point x="485" y="926" type="line"/>
      <point x="590" y="926"/>
      <point x="657" y="877" type="qcurve"/>
      <point x="735" y="823"/>
      <point x="735" y="723" type="qcurve"/>
      <point x="735" y="625"/>
      <point x="653" y="569" type="qcurve"/>
      <point x="778" y="500"/>
    </contour>
    <contour>
      <point x="631" y="715" type="qcurve"/>
      <point x="631" y="766"/>
      <point x="575" y="793" type="qcurve"/>
      <point x="532" y="811"/>
      <point x="475" y="811" type="qcurve"/>
      <point x="342" y="811" type="line"/>
      <point x="342" y="614" type="line"/>
      <point x="477" y="614" type="line"/>
      <point x="631" y="614"/>
    </contour>
    <contour>
      <point x="666" y="387" type="qcurve"/>
      <point x="666" y="502"/>
      <point x="477" y="502" type="qcurve"/>
      <point x="342" y="502" type="line"/>
      <point x="342" y="276" type="line"/>
      <point x="492" y="276" type="line"/>
      <point x="666" y="276"/>
    </contour>
  </outline>
</glyph>
<glyph name="C" format="2">
  <advance width="897"/>
  <unicode hex="0043"/>
  <outline>
    <contour>
      <point x="831" y="381" type="line"/>
      <point x="801" y="279"/>
      <point x="729" y="219" type="qcurve"/>
      <point x="655" y="154"/>
      <point x="553" y="154" type="qcurve"/>
      <point x="238" y="154"/>
      <point x="238" y="547" type="qcurve"/>
      <point x="238" y="709"/>
      <point x="311" y="815" type="qcurve"/>
      <point x="395" y="936"/>
      <point x="551" y="936" type="qcurve"/>
      <point x="643" y="936"/>
      <point x="799" y="825"/>
      <point x="825" y="737" type="qcurve"/>
      <point x="717" y="715" type="line"/>
      <point x="672" y="827"/>
      <point x="555" y="827" type="qcurve"/>
      <point x="350" y="827"/>
      <point x="350" y="541" type="qcurve"/>
      <point x="350" y="428"/>
      <point x="389" y="354" type="qcurve"/>
      <point x="440" y="262"/>
      <point x="545" y="262" type="qcurve"/>
      <point x="608" y="262"/>
      <point x="702" y="344"/>
      <point x="721" y="410" type="qcurve"/>
    </contour>
  </outline>
</glyph>
<glyph name="D" format="2">
  <advance width="885"/>
  <unicode hex="0044"/>
  <outline>
    <contour>
      <point x="813" y="543" type="curve" smooth="yes"/>
      <point x="813" y="314"/>
      <point x="690" y="166"/>
      <point x="463" y="166" type="curve" smooth="yes"/>
      <point x="244" y="166" type="line"/>
      <point x="244" y="926" type="line"/>
      <point x="451" y="926" type="line" smooth="yes"/>
      <point x="678" y="926"/>
      <point x="813" y="772"/>
    </contour>
    <contour>
      <point x="705" y="539" type="curve" smooth="yes"/>
      <point x="705" y="708"/>
      <point x="614" y="813"/>
      <point x="451" y="813" type="curve" smooth="yes"/>
      <point x="354" y="813" type="line"/>
      <point x="354" y="276" type="line"/>
      <point x="451" y="276" type="line" smooth="yes"/>
      <point x="608" y="276"/>
      <point x="705" y="380"/>
    </contour>
  </outline>
</glyph>
<glyph name="G" format="2">
  <advance width="971"/>
  <unicode hex="0047"/>
  <outline>
    <contour>
      <point x="893" y="270" type="line"/>
      <point x="745" y="150"/>
      <point x="590" y="150" type="qcurve"/>
      <point x="426" y="150"/>
      <point x="334" y="266" type="qcurve"/>
      <point x="248" y="373"/>
      <point x="248" y="543" type="qcurve"/>
      <point x="248" y="713"/>
      <point x="326" y="815" type="qcurve"/>
      <point x="414" y="930"/>
      <point x="578" y="930" type="qcurve"/>
      <point x="807" y="930"/>
      <point x="887" y="748" type="qcurve"/>
      <point x="774" y="717" type="line"/>
      <point x="715" y="823"/>
      <point x="588" y="823" type="qcurve"/>
      <point x="479" y="823"/>
      <point x="416" y="737" type="qcurve"/>
      <point x="362" y="662"/>
      <point x="362" y="547" type="qcurve"/>
      <point x="362" y="426"/>
      <point x="416" y="348" type="qcurve"/>
      <point x="479" y="258"/>
      <point x="596" y="258" type="qcurve"/>
      <point x="688" y="258"/>
      <point x="782" y="330" type="qcurve"/>
      <point x="782" y="446" type="line"/>
      <point x="578" y="446" type="line"/>
      <point x="578" y="559" type="line"/>
      <point x="893" y="559" type="line"/>
    </contour>
  </outline>
</glyph>
<glyph name="H" format="2">
  <advance width="885"/>
  <unicode hex="0048"/>
  <outline>
    <contour>
      <point x="795" y="166" type="line"/>
      <point x="682" y="166" type="line"/>
      <point x="682" y="500" type="line"/>
      <point x="356" y="500" type="line"/>
      <point x="356" y="166" type="line"/>
      <point x="246" y="166" type="line"/>
      <point x="246" y="926" type="line"/>
      <point x="356" y="926" type="line"/>
      <point x="356" y="610" type="line"/>
      <point x="682" y="610" type="line"/>
      <point x="682" y="926" type="line"/>
      <point x="795" y="926" type="line"/>
    </contour>
  </outline>
</glyph>
<glyph name="J" format="2">
  <advance width="768"/>
  <unicode hex="004A"/>
  <outline>
    <contour>
      <point x="668" y="406" type="line"/>
      <point x="668" y="301"/>
      <point x="532" y="147"/>
      <point x="430" y="147" type="qcurve"/>
      <point x="328" y="147"/>
      <point x="190" y="281"/>
      <point x="184" y="383" type="qcurve"/>
      <point x="184" y="416" type="line"/>
      <point x="297" y="416" type="line"/>
      <point x="295" y="406"/>
      <point x="295" y="383" type="qcurve"/>
      <point x="295" y="330"/>
      <point x="371" y="256"/>
      <point x="424" y="256" type="qcurve"/>
      <point x="481" y="256"/>
      <point x="557" y="354"/>
      <point x="557" y="412" type="qcurve"/>
      <point x="557" y="922" type="line"/>
      <point x="668" y="922" type="line"/>
    </contour>
  </outline>
</glyph>
<glyph name="K" format="2">
  <advance width="903"/>
  <unicode hex="004B"/>
  <outline>
    <contour>
      <point x="842" y="166" type="line"/>
      <point x="700" y="166" type="line"/>
      <point x="471" y="514" type="line"/>
      <point x="377" y="399" type="line"/>
      <point x="377" y="244"/>
      <point x="379" y="166" type="qcurve"/>
      <point x="266" y="166" type="line"/>
      <point x="266" y="926" type="line"/>
      <point x="379" y="926" type="line"/>
      <point x="379" y="567" type="line"/>
      <point x="686" y="926" type="line"/>
      <point x="829" y="926" type="line"/>
      <point x="549" y="596" type="line"/>
    </contour>
  </outline>
</glyph>
<glyph name="M" format="2">
  <advance width="1022"/>
  <unicode hex="004D"/>
  <outline>
    <contour>
      <point x="922" y="166" type="line"/>
      <point x="809" y="166" type="line"/>
      <point x="809" y="723" type="line"/>
      <point x="778" y="668"/>
      <point x="728" y="589"/>
      <point x="659" y="485" type="curve"/>
      <point x="646" y="468"/>
      <point x="627" y="459"/>
      <point x="602" y="459" type="curve" smooth="yes"/>
      <point x="573" y="459"/>
      <point x="552" y="468"/>
      <point x="538" y="486" type="curve" smooth="yes"/>
      <point x="523" y="505"/>
      <point x="470" y="582"/>
      <point x="377" y="717" type="curve"/>
      <point x="377" y="166" type="line"/>
      <point x="268" y="166" type="line"/>
      <point x="268" y="926" type="line"/>
      <point x="369" y="926" type="line"/>
      <point x="594" y="592" type="line"/>
      <point x="698" y="738"/>
      <point x="774" y="849"/>
      <point x="821" y="926" type="curve"/>
      <point x="922" y="926" type="line"/>
    </contour>
  </outline>
</glyph>
<glyph name="O" format="2">
  <advance width="956"/>
  <unicode hex="004F"/>
  <outline>
    <contour>
      <point x="893" y="537" type="qcurve"/>
      <point x="893" y="385"/>
      <point x="809" y="272" type="qcurve"/>
      <point x="717" y="147"/>
      <point x="571" y="147" type="qcurve"/>
      <point x="426" y="147"/>
      <point x="334" y="270" type="qcurve"/>
      <point x="248" y="383"/>
      <point x="248" y="532" type="qcurve"/>
      <point x="248" y="690"/>
      <point x="330" y="805" type="qcurve"/>
      <point x="422" y="932"/>
      <point x="573" y="932" type="qcurve"/>
      <point x="719" y="932"/>
      <point x="809" y="803" type="qcurve"/>
      <point x="893" y="688"/>
    </contour>
    <contour>
      <point x="778" y="545" type="qcurve"/>
      <point x="778" y="647"/>
      <point x="729" y="729" type="qcurve"/>
      <point x="670" y="821"/>
      <point x="573" y="821" type="qcurve"/>
      <point x="473" y="821"/>
      <point x="414" y="731" type="qcurve"/>
      <point x="362" y="651"/>
      <point x="362" y="547" type="qcurve"/>
      <point x="362" y="436"/>
      <point x="412" y="356" type="qcurve"/>
      <point x="469" y="260"/>
      <point x="571" y="260" type="qcurve"/>
      <point x="672" y="260"/>
      <point x="729" y="356" type="qcurve"/>
      <point x="778" y="436"/>
    </contour>
  </outline>
</glyph>
<glyph name="P" format="2">
  <advance width="852"/>
  <unicode hex="0050"/>
  <outline>
    <contour>
      <point x="776" y="700" type="qcurve"/>
      <point x="776" y="588"/>
      <point x="618" y="465"/>
      <point x="504" y="465" type="qcurve"/>
      <point x="358" y="465" type="line"/>
      <point x="358" y="166" type="line"/>
      <point x="246" y="166" type="line"/>
      <point x="246" y="922" type="line"/>
      <point x="473" y="922" type="line"/>
      <point x="592" y="922"/>
      <point x="676" y="872" type="qcurve"/>
      <point x="776" y="811"/>
    </contour>
    <contour>
      <point x="668" y="694" type="qcurve"/>
      <point x="668" y="754"/>
      <point x="614" y="784" type="qcurve"/>
      <point x="571" y="809"/>
      <point x="508" y="809" type="qcurve"/>
      <point x="358" y="809" type="line"/>
      <point x="358" y="578" type="line"/>
      <point x="500" y="578" type="line"/>
      <point x="563" y="578"/>
      <point x="610" y="604" type="qcurve"/>
      <point x="668" y="635"/>
    </contour>
  </outline>
</glyph>
<glyph name="Q" format="2">
  <advance width="987"/>
  <unicode hex="0051"/>
  <outline>
    <contour>
      <point x="946" y="231" type="qcurve"/>
      <point x="928" y="203"/>
      <point x="889" y="139" type="qcurve"/>
      <point x="809" y="170"/>
      <point x="760" y="207" type="qcurve"/>
      <point x="680" y="145"/>
      <point x="584" y="145" type="qcurve"/>
      <point x="434" y="145"/>
      <point x="344" y="272" type="qcurve"/>
      <point x="262" y="385"/>
      <point x="262" y="539" type="qcurve"/>
      <point x="262" y="690"/>
      <point x="342" y="805" type="qcurve"/>
      <point x="432" y="932"/>
      <point x="578" y="932" type="qcurve"/>
      <point x="727" y="932"/>
      <point x="821" y="807" type="qcurve"/>
      <point x="907" y="694"/>
      <point x="907" y="539" type="qcurve"/>
      <point x="907" y="395"/>
      <point x="831" y="283" type="qcurve"/>
      <point x="874" y="256"/>
    </contour>
    <contour>
      <point x="797" y="537" type="qcurve"/>
      <point x="797" y="645"/>
      <point x="745" y="727" type="qcurve"/>
      <point x="688" y="823"/>
      <point x="586" y="823" type="qcurve"/>
      <point x="483" y="823"/>
      <point x="424" y="729" type="qcurve"/>
      <point x="373" y="647"/>
      <point x="373" y="539" type="qcurve"/>
      <point x="373" y="430"/>
      <point x="422" y="350" type="qcurve"/>
      <point x="481" y="256"/>
      <point x="584" y="256" type="qcurve"/>
      <point x="635" y="256"/>
      <point x="678" y="283" type="qcurve"/>
      <point x="653" y="309"/>
      <point x="594" y="371" type="qcurve"/>
      <point x="659" y="453" type="line"/>
      <point x="678" y="434"/>
      <point x="750" y="356" type="qcurve"/>
      <point x="797" y="434"/>
    </contour>
  </outline>
</glyph>
<glyph name="R" format="2">
  <advance width="893"/>
  <unicode hex="0052"/>
  <outline>
    <contour>
      <point x="836" y="166" type="curve"/>
      <point x="702" y="166" type="line"/>
      <point x="634" y="337"/>
      <point x="573" y="442"/>
      <point x="520" y="483" type="curve"/>
      <point x="383" y="483" type="line"/>
      <point x="383" y="166" type="line"/>
      <point x="268" y="166" type="line"/>
      <point x="270" y="922" type="line"/>
      <point x="565" y="922" type="line" smooth="yes"/>
      <point x="638" y="922"/>
      <point x="696" y="905"/>
      <point x="741" y="870" type="curve" smooth="yes"/>
      <point x="792" y="832"/>
      <point x="817" y="778"/>
      <point x="817" y="709" type="curve" smooth="yes"/>
      <point x="817" y="610"/>
      <point x="749" y="513"/>
      <point x="653" y="494" type="curve"/>
      <point x="676" y="473"/>
      <point x="709" y="422"/>
      <point x="750" y="340" type="curve" smooth="yes"/>
      <point x="779" y="283"/>
      <point x="807" y="225"/>
    </contour>
    <contour>
      <point x="707" y="707" type="curve" smooth="yes"/>
      <point x="707" y="764"/>
      <point x="644" y="809"/>
      <point x="584" y="809" type="curve" smooth="yes"/>
      <point x="383" y="809" type="line"/>
      <point x="383" y="596" type="line"/>
      <point x="586" y="596" type="line" smooth="yes"/>
      <point x="651" y="596"/>
      <point x="707" y="640"/>
    </contour>
  </outline>
</glyph>
<glyph name="S" format="2">
  <advance width="879"/>
  <unicode hex="0053"/>
  <outline>
    <contour>
      <point x="807" y="381" type="qcurve"/>
      <point x="807" y="262"/>
      <point x="717" y="201" type="qcurve"/>
      <point x="639" y="147"/>
      <point x="512" y="147" type="qcurve"/>
      <point x="389" y="147"/>
      <point x="309" y="205" type="qcurve"/>
      <point x="221" y="270"/>
      <point x="211" y="387" type="qcurve"/>
      <point x="326" y="395" type="line"/>
      <point x="342" y="256"/>
      <point x="520" y="256" type="qcurve"/>
      <point x="588" y="256"/>
      <point x="635" y="283" type="qcurve"/>
      <point x="692" y="315"/>
      <point x="692" y="377" type="qcurve"/>
      <point x="692" y="453"/>
      <point x="578" y="489" type="qcurve"/>
      <point x="471" y="522"/>
      <point x="362" y="557" type="qcurve"/>
      <point x="248" y="612"/>
      <point x="248" y="737" type="qcurve"/>
      <point x="248" y="836"/>
      <point x="336" y="891" type="qcurve"/>
      <point x="410" y="936"/>
      <point x="514" y="936" type="qcurve"/>
      <point x="748" y="936"/>
      <point x="793" y="729" type="qcurve"/>
      <point x="678" y="719" type="line"/>
      <point x="678" y="774"/>
      <point x="618" y="803" type="qcurve"/>
      <point x="571" y="825"/>
      <point x="510" y="825" type="qcurve"/>
      <point x="358" y="825"/>
      <point x="358" y="723" type="qcurve"/>
      <point x="358" y="666"/>
      <point x="473" y="635" type="qcurve"/>
      <point x="526" y="618"/>
      <point x="633" y="588" type="qcurve"/>
      <point x="807" y="539"/>
    </contour>
  </outline>
</glyph>
<glyph name="U" format="2">
  <advance width="915"/>
  <unicode hex="0055"/>
  <outline>
    <contour>
      <point x="836" y="467" type="line"/>
      <point x="836" y="338"/>
      <point x="672" y="145"/>
      <point x="545" y="145" type="qcurve"/>
      <point x="414" y="145"/>
      <point x="250" y="334"/>
      <point x="250" y="467" type="qcurve"/>
      <point x="250" y="924" type="line"/>
      <point x="360" y="924" type="line"/>
      <point x="360" y="465" type="line"/>
      <point x="360" y="387"/>
      <point x="465" y="256"/>
      <point x="541" y="256" type="qcurve"/>
      <point x="618" y="256"/>
      <point x="725" y="389"/>
      <point x="725" y="467" type="qcurve"/>
      <point x="725" y="924" type="line"/>
      <point x="836" y="924" type="line"/>
    </contour>
  </outline>
</glyph>
<glyph name="W" format="2">
  <advance width="1237"/>
  <unicode hex="0057"/>
  <outline>
    <contour>
      <point x="1163" y="924" type="line"/>
      <point x="1001" y="166" type="line"/>
      <point x="866" y="166" type="line"/>
      <point x="729" y="651" type="line"/>
      <point x="588" y="166" type="line"/>
      <point x="457" y="166" type="line"/>
      <point x="289" y="924" type="line"/>
      <point x="403" y="924" type="line"/>
      <point x="526" y="367" type="line"/>
      <point x="662" y="801" type="line"/>
      <point x="686" y="874"/>
      <point x="729" y="874" type="qcurve"/>
      <point x="772" y="874"/>
      <point x="795" y="801" type="qcurve"/>
      <point x="930" y="371" type="line"/>
      <point x="1044" y="924" type="line"/>
    </contour>
  </outline>
</glyph>
<glyph name="X" format="2">
  <advance width="946"/>
  <unicode hex="0058"/>
  <outline>
    <contour>
      <point x="881" y="166" type="line"/>
      <point x="743" y="166" type="line"/>
      <point x="680" y="264"/>
      <point x="553" y="467" type="qcurve"/>
      <point x="465" y="328"/>
      <point x="354" y="166" type="qcurve"/>
      <point x="215" y="166" type="line"/>
      <point x="479" y="557" type="line"/>
      <point x="246" y="926" type="line"/>
      <point x="381" y="926" type="line"/>
      <point x="555" y="643" type="line"/>
      <point x="571" y="672"/>
      <point x="737" y="926" type="qcurve"/>
      <point x="872" y="926" type="line"/>
      <point x="629" y="557" type="line"/>
    </contour>
  </outline>
</glyph>
<glyph name="Y" format="2">
  <advance width="963"/>
  <unicode hex="0059"/>
  <outline>
    <contour>
      <point x="885" y="926" type="line"/>
      <point x="614" y="485" type="line"/>
      <point x="614" y="166" type="line"/>
      <point x="504" y="166" type="line"/>
      <point x="504" y="485" type="line"/>
      <point x="233" y="926" type="line"/>
      <point x="369" y="926" type="line"/>
      <point x="559" y="608" type="line"/>
      <point x="643" y="743"/>
      <point x="752" y="926" type="qcurve"/>
    </contour>
  </outline>
</glyph>
<glyph name="backslash" format="2">
  <advance width="702"/>
  <unicode hex="005C"/>
  <outline>
    <contour>
      <point x="680" y="-129" type="line"/>
      <point x="586" y="-184" type="line"/>
      <point x="37" y="1212" type="line"/>
      <point x="131" y="1260" type="line"/>
    </contour>
  </outline>
</glyph>
<glyph name="bracketright" format="2">
  <advance width="733"/>
  <unicode hex="005D"/>
  <outline>
    <contour>
      <point x="424" y="-299" type="line"/>
      <point x="131" y="-299" type="line"/>
      <point x="131" y="-160" type="line"/>
      <point x="274" y="-160" type="line"/>
      <point x="274" y="1188" type="line"/>
      <point x="131" y="1188" type="line"/>
      <point x="131" y="1327" type="line"/>
      <point x="424" y="1327" type="line"/>
    </contour>
  </outline>
</glyph>
<glyph name="grave" format="2">
  <unicode hex="0060"/>
  <outline>
    <contour>
      <point x="-287" y="1159" type="line"/>
      <point x="-346" y="1159" type="line"/>
      <point x="-657" y="1487" type="line"/>
      <point x="-477" y="1487" type="line"/>
    </contour>
  </outline>
</glyph>
<glyph name="a" format="2">
  <advance width="891"/>
  <unicode hex="0061"/>
  <outline>
    <contour>
      <point x="848" y="221" type="line"/>
      <point x="748" y="221" type="line"/>
      <point x="694" y="348" type="line"/>
      <point x="401" y="348" type="line"/>
      <point x="356" y="221" type="line"/>
      <point x="254" y="221" type="line"/>
      <point x="487" y="870" type="line"/>
      <point x="592" y="870" type="line"/>
    </contour>
    <contour>
      <point x="664" y="432" type="line"/>
      <point x="541" y="743" type="line"/>
      <point x="487" y="588"/>
      <point x="434" y="432" type="qcurve"/>
    </contour>
  </outline>
</glyph>
<glyph name="b" format="2">
  <advance width="801"/>
  <unicode hex="0062"/>
  <outline>
    <contour>
      <point x="739" y="406" type="qcurve"/>
      <point x="739" y="221"/>
      <point x="506" y="221" type="qcurve"/>
      <point x="268" y="221" type="line"/>
      <point x="268" y="870" type="line"/>
      <point x="487" y="870" type="line"/>
      <point x="578" y="870"/>
      <point x="635" y="829" type="qcurve"/>
      <point x="702" y="782"/>
      <point x="702" y="698" type="qcurve"/>
      <point x="702" y="612"/>
      <point x="633" y="565" type="qcurve"/>
      <point x="739" y="508"/>
    </contour>
    <contour>
      <point x="612" y="692" type="qcurve"/>
      <point x="612" y="774"/>
      <point x="479" y="774" type="qcurve"/>
      <point x="365" y="774" type="line"/>
      <point x="365" y="604" type="line"/>
      <point x="481" y="604" type="line"/>
      <point x="612" y="604"/>
    </contour>
    <contour>
      <point x="643" y="410" type="qcurve"/>
      <point x="643" y="508"/>
      <point x="481" y="508" type="qcurve"/>
      <point x="365" y="508" type="line"/>
      <point x="365" y="315" type="line"/>
      <point x="494" y="315" type="line"/>
      <point x="643" y="315"/>
    </contour>
  </outline>
</glyph>
<glyph name="c" format="2">
  <advance width="846"/>
  <unicode hex="0063"/>
  <outline>
    <contour>
      <point x="788" y="403" type="line"/>
      <point x="729" y="209"/>
      <point x="551" y="209" type="qcurve"/>
      <point x="281" y="209"/>
      <point x="281" y="547" type="qcurve"/>
      <point x="281" y="686"/>
      <point x="344" y="776" type="qcurve"/>
      <point x="416" y="881"/>
      <point x="549" y="881" type="qcurve"/>
      <point x="627" y="881"/>
      <point x="760" y="784"/>
      <point x="784" y="711" type="qcurve"/>
      <point x="690" y="690" type="line"/>
      <point x="653" y="786"/>
      <point x="553" y="786" type="qcurve"/>
      <point x="377" y="786"/>
      <point x="377" y="541" type="qcurve"/>
      <point x="377" y="303"/>
      <point x="543" y="303" type="qcurve"/>
      <point x="659" y="303"/>
      <point x="694" y="428" type="qcurve"/>
    </contour>
  </outline>
</glyph>
<glyph name="d" format="2">
  <advance width="834"/>
  <unicode hex="0064"/>
  <outline>
    <contour>
      <point x="772" y="545" type="curve" smooth="yes"/>
      <point x="772" y="445"/>
      <point x="747" y="367"/>
      <point x="696" y="311" type="curve" smooth="yes"/>
      <point x="644" y="251"/>
      <point x="569" y="221"/>
      <point x="471" y="221" type="curve" smooth="yes"/>
      <point x="285" y="221" type="line"/>
      <point x="285" y="870" type="line"/>
      <point x="463" y="870" type="line" smooth="yes"/>
      <point x="656" y="870"/>
      <point x="772" y="738"/>
    </contour>
    <contour>
      <point x="680" y="541" type="curve" smooth="yes"/>
      <point x="680" y="682"/>
      <point x="602" y="774"/>
      <point x="461" y="774" type="curve" smooth="yes"/>
      <point x="379" y="774" type="line"/>
      <point x="379" y="315" type="line"/>
      <point x="463" y="315" type="line" smooth="yes"/>
      <point x="596" y="315"/>
      <point x="680" y="404"/>
    </contour>
  </outline>
</glyph>
<glyph name="f" format="2">
  <advance width="752"/>
  <unicode hex="0066"/>
  <outline>
    <contour>
      <point x="682" y="774" type="line"/>
      <point x="367" y="774" type="line"/>
      <point x="367" y="594" type="line"/>
      <point x="649" y="594" type="line"/>
      <point x="649" y="496" type="line"/>
      <point x="367" y="496" type="line"/>
      <point x="367" y="221" type="line"/>
      <point x="270" y="221" type="line"/>
      <point x="270" y="870" type="line"/>
      <point x="682" y="870" type="line"/>
    </contour>
  </outline>
</glyph>
<glyph name="g" format="2">
  <advance width="913"/>
  <unicode hex="0067"/>
  <outline>
    <contour>
      <point x="848" y="307" type="line"/>
      <point x="763" y="239"/>
      <point x="677" y="205"/>
      <point x="588" y="205" type="curve" smooth="yes"/>
      <point x="493" y="205"/>
      <point x="420" y="238"/>
      <point x="367" y="305" type="curve" smooth="yes"/>
      <point x="319" y="366"/>
      <point x="295" y="446"/>
      <point x="295" y="543" type="curve" smooth="yes"/>
      <point x="295" y="640"/>
      <point x="317" y="717"/>
      <point x="360" y="776" type="curve" smooth="yes"/>
      <point x="411" y="841"/>
      <point x="482" y="874"/>
      <point x="575" y="874" type="curve" smooth="yes"/>
      <point x="706" y="874"/>
      <point x="795" y="822"/>
      <point x="842" y="717" type="curve"/>
      <point x="745" y="692" type="line"/>
      <point x="711" y="752"/>
      <point x="658" y="782"/>
      <point x="586" y="782" type="curve" smooth="yes"/>
      <point x="523" y="782"/>
      <point x="474" y="758"/>
      <point x="438" y="709" type="curve" smooth="yes"/>
      <point x="407" y="665"/>
      <point x="391" y="611"/>
      <point x="391" y="547" type="curve" smooth="yes"/>
      <point x="391" y="477"/>
      <point x="407" y="420"/>
      <point x="438" y="375" type="curve" smooth="yes"/>
      <point x="474" y="324"/>
      <point x="525" y="299"/>
      <point x="592" y="299" type="curve" smooth="yes"/>
      <point x="645" y="299"/>
      <point x="699" y="319"/>
      <point x="752" y="360" type="curve"/>
      <point x="752" y="461" type="line"/>
      <point x="575" y="461" type="line"/>
      <point x="575" y="557" type="line"/>
      <point x="848" y="557" type="line"/>
    </contour>
  </outline>
</glyph>
<glyph name="h" format="2">
  <advance width="831"/>
  <unicode hex="0068"/>
  <outline>
    <contour>
      <point x="756" y="221" type="line"/>
      <point x="659" y="221" type="line"/>
      <point x="659" y="506" type="line"/>
      <point x="381" y="506" type="line"/>
      <point x="381" y="221" type="line"/>
      <point x="285" y="221" type="line"/>
      <point x="285" y="870" type="line"/>
      <point x="381" y="870" type="line"/>
      <point x="381" y="600" type="line"/>
      <point x="659" y="600" type="line"/>
      <point x="659" y="870" type="line"/>
      <point x="756" y="870" type="line"/>
    </contour>
  </outline>
</glyph>
<glyph name="i" format="2">
  <advance width="385"/>
  <unicode hex="0069"/>
  <outline>
    <contour>
      <point x="289" y="221" type="line"/>
      <point x="195" y="221" type="line"/>
      <point x="195" y="870" type="line"/>
      <point x="289" y="870" type="line"/>
    </contour>
  </outline>
</glyph>
<glyph name="j" format="2">
  <advance width="719"/>
  <unicode hex="006A"/>
  <outline>
    <contour>
      <point x="633" y="424" type="line"/>
      <point x="633" y="334"/>
      <point x="516" y="203"/>
      <point x="428" y="203" type="qcurve"/>
      <point x="340" y="203"/>
      <point x="223" y="317"/>
      <point x="219" y="403" type="qcurve"/>
      <point x="219" y="432" type="line"/>
      <point x="315" y="432" type="line"/>
      <point x="313" y="424"/>
      <point x="313" y="406" type="qcurve"/>
      <point x="313" y="358"/>
      <point x="379" y="297"/>
      <point x="424" y="297" type="qcurve"/>
      <point x="473" y="297"/>
      <point x="539" y="381"/>
      <point x="539" y="430" type="qcurve"/>
      <point x="539" y="866" type="line"/>
      <point x="633" y="866" type="line"/>
    </contour>
  </outline>
</glyph>
<glyph name="k" format="2">
  <advance width="854"/>
  <unicode hex="006B"/>
  <outline>
    <contour>
      <point x="801" y="221" type="line"/>
      <point x="678" y="221" type="line"/>
      <point x="483" y="518" type="line"/>
      <point x="401" y="420" type="line"/>
      <point x="401" y="287"/>
      <point x="403" y="221" type="qcurve"/>
      <point x="307" y="221" type="line"/>
      <point x="307" y="870" type="line"/>
      <point x="403" y="870" type="line"/>
      <point x="403" y="565" type="line"/>
      <point x="666" y="870" type="line"/>
      <point x="788" y="870" type="line"/>
      <point x="549" y="588" type="line"/>
    </contour>
  </outline>
</glyph>
<glyph name="m" format="2">
  <advance width="961"/>
  <unicode hex="006D"/>
  <outline>
    <contour>
      <point x="877" y="221" type="line"/>
      <point x="778" y="221" type="line"/>
      <point x="778" y="698" type="line"/>
      <point x="737" y="629"/>
      <point x="649" y="496" type="qcurve"/>
      <point x="633" y="471"/>
      <point x="600" y="471" type="qcurve"/>
      <point x="565" y="471"/>
      <point x="528" y="518"/>
      <point x="410" y="692" type="qcurve"/>
      <point x="410" y="221" type="line"/>
      <point x="313" y="221" type="line"/>
      <point x="313" y="870" type="line"/>
      <point x="401" y="870" type="line"/>
      <point x="594" y="586" type="line"/>
      <point x="727" y="772"/>
      <point x="788" y="870" type="qcurve"/>
      <point x="877" y="870" type="line"/>
    </contour>
  </outline>
</glyph>
<glyph name="n" format="2">
  <advance width="842"/>
  <unicode hex="006E"/>
  <outline>
    <contour>
      <point x="756" y="221" type="line"/>
      <point x="672" y="221" type="line"/>
      <point x="381" y="686" type="line"/>
      <point x="381" y="221" type="line"/>
      <point x="285" y="221" type="line"/>
      <point x="285" y="870" type="line"/>
      <point x="377" y="870" type="line"/>
      <point x="659" y="422" type="line"/>
      <point x="659" y="870" type="line"/>
      <point x="756" y="870" type="line"/>
    </contour>
  </outline>
</glyph>
<glyph name="o" format="2">
  <advance width="901"/>
  <unicode hex="006F"/>
  <outline>
    <contour>
      <point x="846" y="537" type="qcurve"/>
      <point x="846" y="408"/>
      <point x="774" y="311" type="qcurve"/>
      <point x="696" y="203"/>
      <point x="571" y="203" type="qcurve"/>
      <point x="446" y="203"/>
      <point x="367" y="309" type="qcurve"/>
      <point x="295" y="406"/>
      <point x="295" y="535" type="qcurve"/>
      <point x="295" y="668"/>
      <point x="365" y="766" type="qcurve"/>
      <point x="442" y="877"/>
      <point x="571" y="877" type="qcurve"/>
      <point x="696" y="877"/>
      <point x="776" y="766" type="qcurve"/>
      <point x="846" y="666"/>
    </contour>
    <contour>
      <point x="750" y="543" type="qcurve"/>
      <point x="750" y="633"/>
      <point x="707" y="700" type="qcurve"/>
      <point x="655" y="780"/>
      <point x="571" y="780" type="qcurve"/>
      <point x="487" y="780"/>
      <point x="436" y="702" type="qcurve"/>
      <point x="393" y="635"/>
      <point x="393" y="545" type="qcurve"/>
      <point x="393" y="451"/>
      <point x="434" y="383" type="qcurve"/>
      <point x="483" y="301"/>
      <point x="571" y="301" type="qcurve"/>
      <point x="657" y="301"/>
      <point x="707" y="383" type="qcurve"/>
      <point x="750" y="451"/>
    </contour>
  </outline>
</glyph>
<glyph name="p" format="2">
  <advance width="803"/>
  <unicode hex="0070"/>
  <outline>
    <contour>
      <point x="739" y="678" type="qcurve"/>
      <point x="739" y="582"/>
      <point x="602" y="477"/>
      <point x="504" y="477" type="qcurve"/>
      <point x="381" y="477" type="line"/>
      <point x="381" y="219" type="line"/>
      <point x="285" y="219" type="line"/>
      <point x="283" y="868" type="line"/>
      <point x="479" y="868" type="line"/>
      <point x="580" y="868"/>
      <point x="653" y="825" type="qcurve"/>
      <point x="739" y="774"/>
    </contour>
    <contour>
      <point x="645" y="674" type="qcurve"/>
      <point x="645" y="772"/>
      <point x="510" y="772" type="qcurve"/>
      <point x="381" y="772" type="line"/>
      <point x="381" y="573" type="line"/>
      <point x="500" y="573" type="line"/>
      <point x="555" y="573"/>
      <point x="596" y="594" type="qcurve"/>
      <point x="645" y="623"/>
    </contour>
  </outline>
</glyph>
<glyph name="q" format="2">
  <advance width="932"/>
  <unicode hex="0071"/>
  <outline>
    <contour>
      <point x="897" y="276" type="curve"/>
      <point x="886" y="260"/>
      <point x="870" y="234"/>
      <point x="848" y="197" type="curve"/>
      <point x="803" y="213"/>
      <point x="766" y="232"/>
      <point x="737" y="254" type="curve"/>
      <point x="692" y="220"/>
      <point x="642" y="203"/>
      <point x="586" y="203" type="curve" smooth="yes"/>
      <point x="501" y="203"/>
      <point x="433" y="238"/>
      <point x="381" y="309" type="curve" smooth="yes"/>
      <point x="334" y="375"/>
      <point x="311" y="452"/>
      <point x="311" y="539" type="curve" smooth="yes"/>
      <point x="311" y="625"/>
      <point x="334" y="701"/>
      <point x="381" y="766" type="curve" smooth="yes"/>
      <point x="432" y="838"/>
      <point x="499" y="874"/>
      <point x="582" y="874" type="curve" smooth="yes"/>
      <point x="668" y="874"/>
      <point x="738" y="839"/>
      <point x="791" y="768" type="curve" smooth="yes"/>
      <point x="840" y="704"/>
      <point x="864" y="628"/>
      <point x="864" y="539" type="curve" smooth="yes"/>
      <point x="864" y="456"/>
      <point x="842" y="382"/>
      <point x="799" y="319" type="curve"/>
      <point x="824" y="303"/>
      <point x="856" y="289"/>
    </contour>
    <contour>
      <point x="768" y="537" type="curve" smooth="yes"/>
      <point x="768" y="598"/>
      <point x="754" y="652"/>
      <point x="727" y="698" type="curve" smooth="yes"/>
      <point x="693" y="754"/>
      <point x="647" y="782"/>
      <point x="588" y="782" type="curve" smooth="yes"/>
      <point x="529" y="782"/>
      <point x="483" y="755"/>
      <point x="449" y="700" type="curve" smooth="yes"/>
      <point x="420" y="654"/>
      <point x="406" y="600"/>
      <point x="406" y="537" type="curve" smooth="yes"/>
      <point x="406" y="475"/>
      <point x="420" y="422"/>
      <point x="449" y="377" type="curve" smooth="yes"/>
      <point x="482" y="322"/>
      <point x="527" y="295"/>
      <point x="586" y="295" type="curve" smooth="yes"/>
      <point x="616" y="295"/>
      <point x="643" y="303"/>
      <point x="668" y="319" type="curve"/>
      <point x="653" y="334"/>
      <point x="629" y="359"/>
      <point x="596" y="393" type="curve"/>
      <point x="651" y="463" type="line"/>
      <point x="662" y="454"/>
      <point x="688" y="426"/>
      <point x="729" y="381" type="curve"/>
      <point x="755" y="426"/>
      <point x="768" y="478"/>
    </contour>
  </outline>
</glyph>
<glyph name="r" format="2">
  <advance width="846"/>
  <unicode hex="0072"/>
  <outline>
    <contour>
      <point x="795" y="219" type="curve"/>
      <point x="682" y="219" type="line"/>
      <point x="623" y="366"/>
      <point x="571" y="458"/>
      <point x="526" y="494" type="curve"/>
      <point x="406" y="494" type="line"/>
      <point x="406" y="219" type="line"/>
      <point x="309" y="219" type="line"/>
      <point x="310" y="375"/>
      <point x="311" y="591"/>
      <point x="311" y="868" type="curve"/>
      <point x="563" y="868" type="line" smooth="yes"/>
      <point x="686" y="868"/>
      <point x="780" y="803"/>
      <point x="780" y="686" type="curve" smooth="yes"/>
      <point x="780" y="602"/>
      <point x="720" y="516"/>
      <point x="639" y="500" type="curve"/>
      <point x="660" y="483"/>
      <point x="687" y="440"/>
      <point x="721" y="369" type="curve" smooth="yes"/>
      <point x="746" y="320"/>
      <point x="770" y="270"/>
    </contour>
    <contour>
      <point x="686" y="684" type="curve" smooth="yes"/>
      <point x="686" y="733"/>
      <point x="631" y="772"/>
      <point x="580" y="772" type="curve" smooth="yes"/>
      <point x="406" y="772" type="line"/>
      <point x="406" y="588" type="line"/>
      <point x="582" y="588" type="line" smooth="yes"/>
      <point x="637" y="588"/>
      <point x="686" y="627"/>
    </contour>
  </outline>
</glyph>
<glyph name="s" format="2">
  <advance width="825"/>
  <unicode hex="0073"/>
  <outline>
    <contour>
      <point x="764" y="406" type="qcurve"/>
      <point x="764" y="301"/>
      <point x="686" y="248" type="qcurve"/>
      <point x="621" y="203"/>
      <point x="512" y="203" type="qcurve"/>
      <point x="408" y="203"/>
      <point x="338" y="254" type="qcurve"/>
      <point x="262" y="309"/>
      <point x="254" y="410" type="qcurve"/>
      <point x="350" y="416" type="line"/>
      <point x="367" y="297"/>
      <point x="518" y="297" type="qcurve"/>
      <point x="668" y="297"/>
      <point x="668" y="401" type="qcurve"/>
      <point x="668" y="465"/>
      <point x="567" y="498" type="qcurve"/>
      <point x="475" y="526"/>
      <point x="383" y="555" type="qcurve"/>
      <point x="285" y="602"/>
      <point x="285" y="709" type="qcurve"/>
      <point x="285" y="793"/>
      <point x="360" y="840" type="qcurve"/>
      <point x="424" y="881"/>
      <point x="514" y="881" type="qcurve"/>
      <point x="713" y="881"/>
      <point x="752" y="702" type="qcurve"/>
      <point x="655" y="694" type="line"/>
      <point x="655" y="741"/>
      <point x="604" y="766" type="qcurve"/>
      <point x="563" y="786"/>
      <point x="510" y="786" type="qcurve"/>
      <point x="379" y="786"/>
      <point x="379" y="696" type="qcurve"/>
      <point x="379" y="647"/>
      <point x="479" y="623" type="qcurve"/>
      <point x="524" y="608"/>
      <point x="614" y="582" type="qcurve"/>
      <point x="764" y="541"/>
    </contour>
  </outline>
</glyph>
<glyph name="u" format="2">
  <advance width="862"/>
  <unicode hex="0075"/>
  <outline>
    <contour>
      <point x="795" y="477" type="line"/>
      <point x="795" y="365"/>
      <point x="653" y="201"/>
      <point x="545" y="201" type="qcurve"/>
      <point x="432" y="201"/>
      <point x="360" y="285" type="qcurve"/>
      <point x="291" y="362"/>
      <point x="291" y="477" type="qcurve"/>
      <point x="291" y="868" type="line"/>
      <point x="387" y="868" type="line"/>
      <point x="387" y="475" type="line"/>
      <point x="387" y="408"/>
      <point x="477" y="297"/>
      <point x="541" y="297" type="qcurve"/>
      <point x="608" y="297"/>
      <point x="698" y="410"/>
      <point x="698" y="477" type="qcurve"/>
      <point x="698" y="868" type="line"/>
      <point x="795" y="868" type="line"/>
    </contour>
  </outline>
</glyph>
<glyph name="v" format="2">
  <advance width="961"/>
  <unicode hex="0076"/>
  <outline>
    <contour>
      <point x="899" y="870" type="line"/>
      <point x="645" y="221" type="line"/>
      <point x="549" y="221" type="line"/>
      <point x="301" y="870" type="line"/>
      <point x="408" y="870" type="line"/>
      <point x="598" y="369" type="line"/>
      <point x="793" y="870" type="line"/>
    </contour>
  </outline>
</glyph>
<glyph name="w" format="2">
  <advance width="1163"/>
  <unicode hex="0077"/>
  <outline>
    <contour>
      <point x="1102" y="868" type="line"/>
      <point x="961" y="221" type="line"/>
      <point x="848" y="221" type="line"/>
      <point x="729" y="637" type="line"/>
      <point x="608" y="221" type="line"/>
      <point x="494" y="221" type="line"/>
      <point x="350" y="868" type="line"/>
      <point x="451" y="868" type="line"/>
      <point x="555" y="393" type="line"/>
      <point x="672" y="764" type="line"/>
      <point x="690" y="827"/>
      <point x="729" y="827" type="qcurve"/>
      <point x="766" y="827"/>
      <point x="786" y="764" type="qcurve"/>
      <point x="899" y="395" type="line"/>
      <point x="997" y="868" type="line"/>
    </contour>
  </outline>
</glyph>
<glyph name="x" format="2">
  <advance width="889"/>
  <unicode hex="0078"/>
  <outline>
    <contour>
      <point x="834" y="221" type="line"/>
      <point x="715" y="221" type="line"/>
      <point x="678" y="276"/>
      <point x="624" y="361"/>
      <point x="553" y="477" type="curve"/>
      <point x="502" y="398"/>
      <point x="445" y="312"/>
      <point x="381" y="221" type="curve"/>
      <point x="262" y="221" type="line"/>
      <point x="487" y="557" type="line"/>
      <point x="289" y="870" type="line"/>
      <point x="406" y="870" type="line"/>
      <point x="553" y="631" type="line"/>
      <point x="564" y="647"/>
      <point x="616" y="727"/>
      <point x="709" y="870" type="curve"/>
      <point x="825" y="870" type="line"/>
      <point x="616" y="557" type="line"/>
    </contour>
  </outline>
</glyph>
<glyph name="y" format="2">
  <advance width="905"/>
  <unicode hex="0079"/>
  <outline>
    <contour>
      <point x="838" y="870" type="line"/>
      <point x="606" y="494" type="line"/>
      <point x="606" y="221" type="line"/>
      <point x="512" y="221" type="line"/>
      <point x="512" y="494" type="line"/>
      <point x="281" y="870" type="line"/>
      <point x="395" y="870" type="line"/>
      <point x="559" y="600" type="line"/>
      <point x="607" y="677"/>
      <point x="662" y="767"/>
      <point x="725" y="870" type="curve"/>
    </contour>
  </outline>
</glyph>
<glyph name="z" format="2">
  <advance width="846"/>
  <unicode hex="007A"/>
  <outline>
    <contour>
      <point x="776" y="221" type="line"/>
      <point x="287" y="221" type="line"/>
      <point x="287" y="315" type="line"/>
      <point x="643" y="774" type="line"/>
      <point x="311" y="774" type="line"/>
      <point x="311" y="870" type="line"/>
      <point x="770" y="870" type="line"/>
      <point x="770" y="780" type="line"/>
      <point x="590" y="549"/>
      <point x="412" y="317" type="qcurve"/>
      <point x="776" y="317" type="line"/>
    </contour>
  </outline>
</glyph>
<glyph name="braceleft" format="2">
  <advance width="905"/>
  <unicode hex="007B"/>
  <outline>
    <contour>
      <point x="647" y="1499" type="qcurve"/>
      <point x="473" y="1407"/>
      <point x="473" y="1284" type="qcurve"/>
      <point x="473" y="1233"/>
      <point x="518" y="1034"/>
      <point x="518" y="983" type="qcurve"/>
      <point x="518" y="750"/>
      <point x="266" y="659" type="qcurve"/>
      <point x="518" y="573"/>
      <point x="518" y="334" type="qcurve"/>
      <point x="518" y="283"/>
      <point x="473" y="84"/>
      <point x="473" y="33" type="qcurve"/>
      <point x="473" y="-86"/>
      <point x="645" y="-182" type="qcurve"/>
      <point x="526" y="-145"/>
      <point x="451" y="-63" type="qcurve"/>
      <point x="367" y="27"/>
      <point x="367" y="143" type="qcurve"/>
      <point x="367" y="195"/>
      <point x="412" y="389"/>
      <point x="412" y="440" type="qcurve"/>
      <point x="412" y="600"/>
      <point x="184" y="655" type="qcurve"/>
      <point x="184" y="664" type="line"/>
      <point x="412" y="733"/>
      <point x="412" y="877" type="qcurve"/>
      <point x="412" y="928"/>
      <point x="367" y="1122"/>
      <point x="367" y="1174" type="qcurve"/>
      <point x="367" y="1290"/>
      <point x="451" y="1382" type="qcurve"/>
      <point x="528" y="1464"/>
    </contour>
  </outline>
</glyph>
<glyph name="braceright" format="2">
  <advance width="905"/>
  <unicode hex="007D"/>
  <outline>
    <contour>
      <point x="733" y="635" type="line"/>
      <point x="673" y="626"/>
      <point x="622" y="603"/>
      <point x="580" y="567" type="curve" smooth="yes"/>
      <point x="532" y="528"/>
      <point x="508" y="479"/>
      <point x="508" y="422" type="curve" smooth="yes"/>
      <point x="508" y="388"/>
      <point x="516" y="338"/>
      <point x="530" y="274" type="curve" smooth="yes"/>
      <point x="546" y="208"/>
      <point x="553" y="159"/>
      <point x="553" y="125" type="curve" smooth="yes"/>
      <point x="553" y="48"/>
      <point x="525" y="-21"/>
      <point x="469" y="-82" type="curve" smooth="yes"/>
      <point x="418" y="-135"/>
      <point x="354" y="-175"/>
      <point x="276" y="-201" type="curve"/>
      <point x="388" y="-138"/>
      <point x="444" y="-66"/>
      <point x="444" y="14" type="curve" smooth="yes"/>
      <point x="444" y="49"/>
      <point x="436" y="99"/>
      <point x="420" y="164" type="curve" smooth="yes"/>
      <point x="405" y="229"/>
      <point x="397" y="279"/>
      <point x="397" y="313" type="curve" smooth="yes"/>
      <point x="397" y="497"/>
      <point x="456" y="582"/>
      <point x="631" y="639" type="curve"/>
      <point x="462" y="696"/>
      <point x="397" y="786"/>
      <point x="397" y="965" type="curve" smooth="yes"/>
      <point x="397" y="999"/>
      <point x="405" y="1049"/>
      <point x="420" y="1115" type="curve" smooth="yes"/>
      <point x="436" y="1181"/>
      <point x="444" y="1231"/>
      <point x="444" y="1266" type="curve" smooth="yes"/>
      <point x="444" y="1353"/>
      <point x="381" y="1426"/>
      <point x="256" y="1485" type="curve"/>
      <point x="338" y="1464"/>
      <point x="407" y="1425"/>
      <point x="463" y="1368" type="curve" smooth="yes"/>
      <point x="523" y="1305"/>
      <point x="553" y="1234"/>
      <point x="553" y="1153" type="curve" smooth="yes"/>
      <point x="553" y="1120"/>
      <point x="546" y="1071"/>
      <point x="530" y="1006" type="curve" smooth="yes"/>
      <point x="516" y="940"/>
      <point x="508" y="891"/>
      <point x="508" y="858" type="curve" smooth="yes"/>
      <point x="508" y="801"/>
      <point x="532" y="752"/>
      <point x="580" y="711" type="curve" smooth="yes"/>
      <point x="621" y="675"/>
      <point x="672" y="652"/>
      <point x="733" y="643" type="curve"/>
    </contour>
  </outline>
</glyph>
<glyph name="asciitilde" format="2">
  <advance width="942"/>
  <unicode hex="007E"/>
  <outline>
    <contour>
      <point x="866" y="598" type="curve"/>
      <point x="856" y="485" type="line"/>
      <point x="745" y="424" type="line" smooth="yes"/>
      <point x="699" y="398"/>
      <point x="660" y="385"/>
      <point x="627" y="385" type="curve" smooth="yes"/>
      <point x="587" y="385"/>
      <point x="534" y="412"/>
      <point x="469" y="467" type="curve" smooth="yes"/>
      <point x="396" y="527"/>
      <point x="335" y="557"/>
      <point x="285" y="557" type="curve" smooth="yes"/>
      <point x="249" y="557"/>
      <point x="211" y="541"/>
      <point x="172" y="510" type="curve" smooth="yes"/>
      <point x="139" y="481"/>
      <point x="107" y="453"/>
      <point x="76" y="424" type="curve"/>
      <point x="88" y="551" type="line"/>
      <point x="207" y="632"/>
      <point x="287" y="672"/>
      <point x="328" y="672" type="curve" smooth="yes"/>
      <point x="363" y="672"/>
      <point x="418" y="644"/>
      <point x="492" y="587" type="curve" smooth="yes"/>
      <point x="567" y="530"/>
      <point x="627" y="502"/>
      <point x="672" y="502" type="curve" smooth="yes"/>
      <point x="705" y="502"/>
      <point x="739" y="513"/>
      <point x="776" y="535" type="curve"/>
      <point x="806" y="556"/>
      <point x="836" y="577"/>
    </contour>
  </outline>
</glyph>
<glyph name="currency" format="2">
  <advance width="1139"/>
  <unicode hex="00A4"/>
  <outline>
    <contour>
      <point x="1049" y="420" type="line"/>
      <point x="956" y="326" type="line"/>
      <point x="815" y="469" type="line"/>
      <point x="696" y="387"/>
      <point x="565" y="387" type="qcurve"/>
      <point x="434" y="387"/>
      <point x="315" y="469" type="qcurve"/>
      <point x="172" y="326" type="line"/>
      <point x="82" y="420" type="line"/>
      <point x="225" y="559" type="line"/>
      <point x="145" y="682"/>
      <point x="145" y="809" type="qcurve"/>
      <point x="145" y="932"/>
      <point x="225" y="1057" type="qcurve"/>
      <point x="82" y="1196" type="line"/>
      <point x="172" y="1288" type="line"/>
      <point x="315" y="1147" type="line"/>
      <point x="434" y="1229"/>
      <point x="565" y="1229" type="qcurve"/>
      <point x="696" y="1229"/>
      <point x="815" y="1147" type="qcurve"/>
      <point x="956" y="1288" type="line"/>
      <point x="1049" y="1196" type="line"/>
      <point x="905" y="1057" type="line"/>
      <point x="985" y="932"/>
      <point x="985" y="809" type="qcurve"/>
      <point x="985" y="682"/>
      <point x="905" y="559" type="qcurve"/>
    </contour>
    <contour>
      <point x="856" y="809" type="qcurve"/>
      <point x="856" y="932"/>
      <point x="686" y="1100"/>
      <point x="563" y="1100" type="qcurve"/>
      <point x="442" y="1100"/>
      <point x="272" y="930"/>
      <point x="272" y="809" type="qcurve"/>
      <point x="272" y="686"/>
      <point x="440" y="516"/>
      <point x="563" y="516" type="qcurve"/>
      <point x="686" y="516"/>
      <point x="856" y="686"/>
    </contour>
  </outline>
</glyph>
<glyph name="section" format="2">
  <advance width="1280"/>
  <unicode hex="00A7"/>
  <outline>
    <contour>
      <point x="1014" y="762" type="qcurve"/>
      <point x="1014" y="614"/>
      <point x="840" y="500" type="qcurve"/>
      <point x="930" y="403"/>
      <point x="930" y="311" type="qcurve"/>
      <point x="930" y="203"/>
      <point x="748" y="51"/>
      <point x="635" y="51" type="qcurve"/>
      <point x="315" y="51"/>
      <point x="311" y="352" type="qcurve"/>
      <point x="449" y="352" type="line"/>
      <point x="451" y="168"/>
      <point x="612" y="168" type="qcurve"/>
      <point x="682" y="168"/>
      <point x="733" y="203" type="qcurve"/>
      <point x="793" y="242"/>
      <point x="793" y="307" type="qcurve"/>
      <point x="793" y="383"/>
      <point x="627" y="498" type="qcurve"/>
      <point x="506" y="571"/>
      <point x="387" y="643" type="qcurve"/>
      <point x="246" y="750"/>
      <point x="246" y="872" type="qcurve"/>
      <point x="246" y="1028"/>
      <point x="414" y="1130" type="qcurve"/>
      <point x="334" y="1217"/>
      <point x="334" y="1296" type="qcurve"/>
      <point x="334" y="1417"/>
      <point x="506" y="1571"/>
      <point x="627" y="1571" type="qcurve"/>
      <point x="760" y="1571"/>
      <point x="924" y="1411"/>
      <point x="928" y="1278" type="qcurve"/>
      <point x="797" y="1278" type="line"/>
      <point x="793" y="1452"/>
      <point x="627" y="1452" type="qcurve"/>
      <point x="565" y="1452"/>
      <point x="471" y="1376"/>
      <point x="471" y="1317" type="qcurve"/>
      <point x="471" y="1233"/>
      <point x="612" y="1149" type="qcurve"/>
      <point x="872" y="995" type="line"/>
      <point x="1014" y="891"/>
    </contour>
    <contour>
      <point x="887" y="731" type="qcurve"/>
      <point x="887" y="831"/>
      <point x="778" y="897" type="qcurve"/>
      <point x="487" y="1073" type="line"/>
      <point x="373" y="1010"/>
      <point x="373" y="905" type="qcurve"/>
      <point x="373" y="811"/>
      <point x="451" y="762" type="qcurve"/>
      <point x="764" y="561" type="line"/>
      <point x="887" y="627"/>
    </contour>
  </outline>
</glyph>
<glyph name="copyright" format="2">
  <advance width="1434"/>
  <unicode hex="00A9"/>
  <outline>
    <contour>
      <point x="1239" y="1081" type="qcurve"/>
      <point x="1239" y="856"/>
      <point x="932" y="551"/>
      <point x="707" y="551" type="qcurve"/>
      <point x="481" y="551"/>
      <point x="174" y="856"/>
      <point x="174" y="1081" type="qcurve"/>
      <point x="174" y="1307"/>
      <point x="481" y="1614"/>
      <point x="707" y="1614" type="qcurve"/>
      <point x="930" y="1614"/>
      <point x="1239" y="1305"/>
    </contour>
    <contour>
      <point x="1196" y="1081" type="qcurve"/>
      <point x="1196" y="1290"/>
      <point x="915" y="1571"/>
      <point x="707" y="1571" type="qcurve"/>
      <point x="500" y="1571"/>
      <point x="217" y="1288"/>
      <point x="217" y="1081" type="qcurve"/>
      <point x="217" y="874"/>
      <point x="500" y="592"/>
      <point x="707" y="592" type="qcurve"/>
      <point x="911" y="592"/>
      <point x="1196" y="877"/>
    </contour>
    <contour>
      <point x="981" y="885" type="qcurve"/>
      <point x="879" y="750"/>
      <point x="711" y="750" type="qcurve"/>
      <point x="563" y="750"/>
      <point x="369" y="932"/>
      <point x="369" y="1077" type="qcurve"/>
      <point x="369" y="1229"/>
      <point x="479" y="1325" type="qcurve"/>
      <point x="584" y="1419"/>
      <point x="737" y="1419" type="qcurve"/>
      <point x="766" y="1419"/>
      <point x="881" y="1384"/>
      <point x="909" y="1384" type="qcurve"/>
      <point x="942" y="1384"/>
      <point x="958" y="1419" type="qcurve"/>
      <point x="963" y="1419" type="line"/>
      <point x="975" y="1233" type="line"/>
      <point x="920" y="1401"/>
      <point x="729" y="1401" type="qcurve"/>
      <point x="594" y="1401"/>
      <point x="526" y="1311" type="qcurve"/>
      <point x="465" y="1231"/>
      <point x="465" y="1092" type="qcurve"/>
      <point x="465" y="774"/>
      <point x="737" y="774" type="qcurve"/>
      <point x="852" y="774"/>
    </contour>
  </outline>
</glyph>
<glyph name="registered" format="2">
  <advance width="1450"/>
  <unicode hex="00AE"/>
  <outline>
    <contour>
      <point x="1260" y="1087" type="curve" smooth="yes"/>
      <point x="1260" y="787"/>
      <point x="1027" y="555"/>
      <point x="727" y="555" type="curve" smooth="yes"/>
      <point x="427" y="555"/>
      <point x="195" y="787"/>
      <point x="195" y="1087" type="curve" smooth="yes"/>
      <point x="195" y="1388"/>
      <point x="427" y="1618"/>
      <point x="727" y="1618" type="curve" smooth="yes"/>
      <point x="1024" y="1618"/>
      <point x="1260" y="1386"/>
    </contour>
    <contour>
      <point x="1217" y="1087" type="curve" smooth="yes"/>
      <point x="1217" y="1363"/>
      <point x="1003" y="1577"/>
      <point x="727" y="1577" type="curve" smooth="yes"/>
      <point x="451" y="1577"/>
      <point x="238" y="1363"/>
      <point x="238" y="1087" type="curve" smooth="yes"/>
      <point x="238" y="812"/>
      <point x="451" y="598"/>
      <point x="727" y="598" type="curve" smooth="yes"/>
      <point x="1003" y="598"/>
      <point x="1217" y="812"/>
    </contour>
    <contour>
      <point x="1004" y="772" type="curve"/>
      <point x="901" y="772" type="line"/>
      <point x="674" y="1081" type="line"/>
      <point x="592" y="1081" type="line"/>
      <point x="592" y="829" type="line" smooth="yes"/>
      <point x="592" y="800"/>
      <point x="609" y="781"/>
      <point x="643" y="772" type="curve"/>
      <point x="465" y="772" type="line"/>
      <point x="495" y="783"/>
      <point x="510" y="818"/>
      <point x="510" y="879" type="curve" smooth="yes"/>
      <point x="510" y="1321" type="line" smooth="yes"/>
      <point x="510" y="1372"/>
      <point x="493" y="1401"/>
      <point x="459" y="1409" type="curve"/>
      <point x="723" y="1409" type="line" smooth="yes"/>
      <point x="779" y="1409"/>
      <point x="827" y="1397"/>
      <point x="866" y="1372" type="curve" smooth="yes"/>
      <point x="913" y="1343"/>
      <point x="936" y="1303"/>
      <point x="936" y="1251" type="curve" smooth="yes"/>
      <point x="936" y="1174"/>
      <point x="875" y="1120"/>
      <point x="754" y="1090" type="curve"/>
      <point x="930" y="840" type="line" smooth="yes"/>
      <point x="956" y="803"/>
      <point x="981" y="780"/>
    </contour>
    <contour>
      <point x="842" y="1241" type="curve" smooth="yes"/>
      <point x="842" y="1330"/>
      <point x="785" y="1374"/>
      <point x="672" y="1374" type="curve" smooth="yes"/>
      <point x="645" y="1374"/>
      <point x="618" y="1369"/>
      <point x="592" y="1360" type="curve"/>
      <point x="592" y="1120" type="line"/>
      <point x="678" y="1121"/>
      <point x="731" y="1125"/>
      <point x="752" y="1130" type="curve" smooth="yes"/>
      <point x="812" y="1147"/>
      <point x="842" y="1184"/>
    </contour>
  </outline>
</glyph>
<glyph name="paragraph" format="2">
  <advance width="1280"/>
  <unicode hex="00B6"/>
  <outline>
    <contour>
      <point x="981" y="8" type="line"/>
      <point x="870" y="8" type="line"/>
      <point x="870" y="1432" type="line"/>
      <point x="664" y="1432" type="line"/>
      <point x="664" y="8" type="line"/>
      <point x="553" y="8" type="line"/>
      <point x="553" y="913" type="line"/>
      <point x="408" y="918"/>
      <point x="309" y="991" type="qcurve"/>
      <point x="197" y="1073"/>
      <point x="197" y="1212" type="qcurve"/>
      <point x="197" y="1372"/>
      <point x="309" y="1452" type="qcurve"/>
      <point x="408" y="1522"/>
      <point x="573" y="1522" type="qcurve"/>
      <point x="981" y="1522" type="line"/>
    </contour>
  </outline>
</glyph>
<glyph name="middot" format="2">
  <advance width="934"/>
  <unicode hex="00B7"/>
  <outline>
    <contour>
      <point x="545" y="567" type="curve" smooth="yes"/>
      <point x="545" y="520"/>
      <point x="506" y="483"/>
      <point x="459" y="483" type="curve" smooth="yes"/>
      <point x="412" y="483"/>
      <point x="375" y="520"/>
      <point x="375" y="567" type="curve" smooth="yes"/>
      <point x="375" y="616"/>
      <point x="414" y="662"/>
      <point x="461" y="662" type="curve" smooth="yes"/>
      <point x="505" y="662"/>
      <point x="545" y="614"/>
    </contour>
  </outline>
</glyph>
<glyph name="afii57929" format="2">
  <advance width="483"/>
  <unicode hex="02BC"/>
  <outline>
    <contour>
      <point x="395" y="1067" type="curve" smooth="yes"/>
      <point x="395" y="884"/>
      <point x="271" y="714"/>
      <point x="96" y="651" type="curve"/>
      <point x="96" y="719" type="line"/>
      <point x="211" y="770"/>
      <point x="276" y="849"/>
      <point x="291" y="958" type="curve"/>
      <point x="236" y="993" type="line"/>
      <point x="167" y="998"/>
      <point x="119" y="1061"/>
      <point x="119" y="1133" type="curve" smooth="yes"/>
      <point x="119" y="1209"/>
      <point x="169" y="1290"/>
      <point x="244" y="1290" type="curve" smooth="yes"/>
      <point x="294" y="1290"/>
      <point x="333" y="1264"/>
      <point x="360" y="1212" type="curve" smooth="yes"/>
      <point x="383" y="1170"/>
      <point x="395" y="1122"/>
    </contour>
  </outline>
</glyph>
<glyph name="macronlowmod" format="2">
  <advance width="872"/>
  <unicode hex="02CD"/>
  <outline>
    <contour>
      <point x="776" y="14" type="line"/>
      <point x="143" y="14" type="line"/>
      <point x="143" y="168" type="line"/>
      <point x="776" y="168" type="line"/>
    </contour>
  </outline>
</glyph>
<glyph name="hyphentwo" format="2">
  <advance width="885"/>
  <unicode hex="2010"/>
  <outline>
    <contour>
      <point x="721" y="434" type="line"/>
      <point x="164" y="434" type="line"/>
      <point x="164" y="606" type="line"/>
      <point x="721" y="606" type="line"/>
    </contour>
  </outline>
</glyph>
<glyph name="quoteleft" format="2">
  <advance width="500"/>
  <unicode hex="2018"/>
  <outline>
    <contour>
      <point x="391" y="1221" type="line"/>
      <point x="221" y="1153"/>
      <point x="197" y="987" type="qcurve"/>
      <point x="250" y="950" type="line"/>
      <point x="303" y="948"/>
      <point x="371" y="864"/>
      <point x="371" y="811" type="qcurve"/>
      <point x="371" y="752"/>
      <point x="338" y="705" type="qcurve"/>
      <point x="301" y="651"/>
      <point x="244" y="651" type="qcurve"/>
      <point x="168" y="651"/>
      <point x="127" y="729" type="qcurve"/>
      <point x="92" y="793"/>
      <point x="92" y="874" type="qcurve"/>
      <point x="92" y="1014"/>
      <point x="260" y="1245"/>
      <point x="391" y="1294" type="qcurve"/>
    </contour>
  </outline>
</glyph>
<glyph name="quoteright" format="2">
  <advance width="602"/>
  <unicode hex="2019"/>
  <outline>
    <contour>
      <point x="477" y="1067" type="qcurve"/>
      <point x="477" y="930"/>
      <point x="309" y="698"/>
      <point x="178" y="651" type="qcurve"/>
      <point x="178" y="719" type="line"/>
      <point x="350" y="795"/>
      <point x="373" y="958" type="qcurve"/>
      <point x="317" y="993" type="line"/>
      <point x="266" y="997"/>
      <point x="201" y="1079"/>
      <point x="201" y="1133" type="qcurve"/>
      <point x="201" y="1190"/>
      <point x="270" y="1290"/>
      <point x="326" y="1290" type="qcurve"/>
      <point x="401" y="1290"/>
      <point x="442" y="1212" type="qcurve"/>
      <point x="477" y="1149"/>
    </contour>
  </outline>
</glyph>
<glyph name="quotedblleft" format="2">
  <advance width="1051"/>
  <unicode hex="201C"/>
  <outline>
    <contour>
      <point x="944" y="1221" type="line"/>
      <point x="774" y="1153"/>
      <point x="750" y="987" type="qcurve"/>
      <point x="803" y="950" type="line"/>
      <point x="856" y="948"/>
      <point x="924" y="864"/>
      <point x="924" y="811" type="qcurve"/>
      <point x="924" y="752"/>
      <point x="891" y="705" type="qcurve"/>
      <point x="854" y="651"/>
      <point x="797" y="651" type="qcurve"/>
      <point x="721" y="651"/>
      <point x="680" y="729" type="qcurve"/>
      <point x="645" y="793"/>
      <point x="645" y="874" type="qcurve"/>
      <point x="645" y="1014"/>
      <point x="813" y="1245"/>
      <point x="944" y="1294" type="qcurve"/>
    </contour>
    <contour>
      <point x="485" y="1223" type="line"/>
      <point x="315" y="1147"/>
      <point x="291" y="985" type="qcurve"/>
      <point x="344" y="946" type="line"/>
      <point x="397" y="944"/>
      <point x="465" y="862"/>
      <point x="465" y="809" type="qcurve"/>
      <point x="465" y="752"/>
      <point x="432" y="705" type="qcurve"/>
      <point x="395" y="651"/>
      <point x="340" y="651" type="qcurve"/>
      <point x="262" y="651"/>
      <point x="221" y="729" type="qcurve"/>
      <point x="188" y="791"/>
      <point x="188" y="874" type="qcurve"/>
      <point x="188" y="1012"/>
      <point x="356" y="1243"/>
      <point x="485" y="1290" type="qcurve"/>
    </contour>
  </outline>
</glyph>
<glyph name="quotedblright" format="2">
  <advance width="1051"/>
  <unicode hex="201D"/>
  <outline>
    <contour>
      <point x="887" y="1047" type="qcurve"/>
      <point x="887" y="909"/>
      <point x="719" y="678"/>
      <point x="588" y="631" type="qcurve"/>
      <point x="588" y="698" type="line"/>
      <point x="760" y="774"/>
      <point x="782" y="938" type="qcurve"/>
      <point x="727" y="973" type="line"/>
      <point x="676" y="977"/>
      <point x="610" y="1059"/>
      <point x="610" y="1112" type="qcurve"/>
      <point x="610" y="1169"/>
      <point x="680" y="1270"/>
      <point x="735" y="1270" type="qcurve"/>
      <point x="811" y="1270"/>
      <point x="852" y="1192" type="qcurve"/>
      <point x="887" y="1128"/>
    </contour>
    <contour>
      <point x="428" y="1042" type="qcurve"/>
      <point x="428" y="905"/>
      <point x="260" y="670"/>
      <point x="131" y="623" type="qcurve"/>
      <point x="131" y="696" type="line"/>
      <point x="301" y="764"/>
      <point x="324" y="932" type="qcurve"/>
      <point x="268" y="965" type="line"/>
      <point x="217" y="969"/>
      <point x="154" y="1053"/>
      <point x="154" y="1106" type="qcurve"/>
      <point x="154" y="1163"/>
      <point x="223" y="1264"/>
      <point x="279" y="1264" type="qcurve"/>
      <point x="354" y="1264"/>
      <point x="395" y="1186" type="qcurve"/>
      <point x="428" y="1124"/>
    </contour>
  </outline>
</glyph>
<glyph name="bullet" format="2">
  <advance width="1147"/>
  <unicode hex="2022"/>
  <outline>
    <contour>
      <point x="887" y="541" type="curve" smooth="yes"/>
      <point x="887" y="377"/>
      <point x="753" y="248"/>
      <point x="586" y="248" type="curve" smooth="yes"/>
      <point x="427" y="248"/>
      <point x="299" y="380"/>
      <point x="299" y="539" type="curve" smooth="yes"/>
      <point x="299" y="699"/>
      <point x="433" y="834"/>
      <point x="594" y="834" type="curve" smooth="yes"/>
      <point x="750" y="834"/>
      <point x="887" y="696"/>
    </contour>
  </outline>
</glyph>
<glyph name="ellipsis" format="2">
  <advance width="1178"/>
  <unicode hex="2026"/>
  <outline>
    <contour>
      <point x="1094" y="84" type="qcurve"/>
      <point x="1094" y="41"/>
      <point x="1036" y="-23"/>
      <point x="993" y="-23" type="qcurve"/>
      <point x="952" y="-23"/>
      <point x="897" y="43"/>
      <point x="897" y="84" type="qcurve"/>
      <point x="897" y="127"/>
      <point x="952" y="190"/>
      <point x="993" y="190" type="qcurve"/>
      <point x="1036" y="190"/>
      <point x="1094" y="127"/>
    </contour>
    <contour>
      <point x="711" y="84" type="qcurve"/>
      <point x="711" y="41"/>
      <point x="649" y="-23"/>
      <point x="606" y="-23" type="qcurve"/>
      <point x="565" y="-23"/>
      <point x="504" y="43"/>
      <point x="504" y="84" type="qcurve"/>
      <point x="504" y="125"/>
      <point x="565" y="195"/>
      <point x="606" y="195" type="qcurve"/>
      <point x="651" y="195"/>
      <point x="711" y="129"/>
    </contour>
    <contour>
      <point x="311" y="82" type="qcurve"/>
      <point x="311" y="41"/>
      <point x="252" y="-25"/>
      <point x="211" y="-25" type="qcurve"/>
      <point x="168" y="-25"/>
      <point x="109" y="39"/>
      <point x="109" y="82" type="qcurve"/>
      <point x="109" y="125"/>
      <point x="168" y="190"/>
      <point x="211" y="190" type="qcurve"/>
      <point x="252" y="190"/>
      <point x="311" y="125"/>
    </contour>
  </outline>
</glyph>
<glyph name="dblanglebracketleft" format="2">
  <advance width="1100"/>
  <unicode hex="300A"/>
  <outline>
    <contour>
      <point x="999" y="17" type="line"/>
      <point x="669" y="674" type="line"/>
      <point x="999" y="1332" type="line"/>
      <point x="976" y="1343"/>
      <point x="954" y="1353"/>
      <point x="932" y="1365" type="curve"/>
      <point x="585" y="674" type="line"/>
      <point x="701" y="444"/>
      <point x="816" y="214"/>
      <point x="932" y="-15" type="curve"/>
    </contour>
    <contour>
      <point x="704" y="17" type="line"/>
      <point x="374" y="674" type="line"/>
      <point x="704" y="1332" type="line"/>
      <point x="681" y="1343"/>
      <point x="659" y="1353"/>
      <point x="637" y="1365" type="curve"/>
      <point x="290" y="674" type="line"/>
      <point x="406" y="444"/>
      <point x="521" y="214"/>
      <point x="637" y="-15" type="curve"/>
    </contour>
  </outline>
</glyph>
<glyph name="uniA4D0" format="2">
  <advance width="999"/>
  <unicode hex="A4D0"/>
  <outline>
    <contour>
      <point x="895" y="313" type="qcurve"/>
      <point x="895" y="137"/>
      <point x="782" y="63" type="qcurve"/>
      <point x="690" y="4"/>
      <point x="506" y="4" type="qcurve"/>
      <point x="113" y="4" type="line"/>
      <point x="113" y="1087" type="line"/>
      <point x="477" y="1087" type="line"/>
      <point x="627" y="1087"/>
      <point x="723" y="1020" type="qcurve"/>
      <point x="834" y="942"/>
      <point x="834" y="799" type="qcurve"/>
      <point x="834" y="657"/>
      <point x="719" y="580" type="qcurve"/>
      <point x="895" y="481"/>
    </contour>
    <contour>
      <point x="684" y="788" type="qcurve"/>
      <point x="684" y="860"/>
      <point x="604" y="897" type="qcurve"/>
      <point x="543" y="926"/>
      <point x="463" y="926" type="qcurve"/>
      <point x="272" y="926" type="line"/>
      <point x="272" y="643" type="line"/>
      <point x="465" y="643" type="line"/>
      <point x="684" y="643"/>
    </contour>
    <contour>
      <point x="735" y="319" type="qcurve"/>
      <point x="735" y="483"/>
      <point x="465" y="483" type="qcurve"/>
      <point x="272" y="483" type="line"/>
      <point x="272" y="162" type="line"/>
      <point x="485" y="162" type="line"/>
      <point x="735" y="162"/>
    </contour>
  </outline>
</glyph>
<glyph name="uniA4D1" format="2">
  <advance width="997"/>
  <unicode hex="A4D1"/>
  <outline>
    <contour>
      <point x="891" y="768" type="qcurve"/>
      <point x="891" y="608"/>
      <point x="772" y="516" type="qcurve"/>
      <point x="664" y="432"/>
      <point x="500" y="432" type="qcurve"/>
      <point x="293" y="432" type="line"/>
      <point x="293" y="4" type="line"/>
      <point x="133" y="4" type="line"/>
      <point x="131" y="1083" type="line"/>
      <point x="457" y="1083" type="line"/>
      <point x="627" y="1083"/>
      <point x="748" y="1012" type="qcurve"/>
      <point x="891" y="928"/>
    </contour>
    <contour>
      <point x="733" y="760" type="qcurve"/>
      <point x="733" y="844"/>
      <point x="659" y="887" type="qcurve"/>
      <point x="598" y="924"/>
      <point x="508" y="924" type="qcurve"/>
      <point x="293" y="924" type="line"/>
      <point x="293" y="592" type="line"/>
      <point x="494" y="592" type="line"/>
      <point x="588" y="592"/>
      <point x="653" y="629" type="qcurve"/>
      <point x="733" y="674"/>
    </contour>
  </outline>
</glyph>
<glyph name="uniA4D2" format="2">
  <advance width="1020"/>
  <unicode hex="A4D2"/>
  <outline>
    <contour>
      <point x="877" y="4" type="line"/>
      <point x="428" y="4" type="line" smooth="yes"/>
      <point x="245" y="4"/>
      <point x="96" y="139"/>
      <point x="96" y="319" type="curve" smooth="yes"/>
      <point x="96" y="550"/>
      <point x="197" y="656"/>
      <point x="424" y="680" type="curve" smooth="yes"/>
      <point x="461" y="684"/>
      <point x="558" y="686"/>
      <point x="717" y="686" type="curve"/>
      <point x="717" y="1087" type="line"/>
      <point x="877" y="1087" type="line"/>
    </contour>
    <contour>
      <point x="717" y="162" type="line"/>
      <point x="717" y="526" type="line"/>
      <point x="498" y="526" type="line" smooth="yes"/>
      <point x="431" y="526"/>
      <point x="376" y="510"/>
      <point x="334" y="479" type="curve" smooth="yes"/>
      <point x="286" y="444"/>
      <point x="262" y="394"/>
      <point x="262" y="330" type="curve" smooth="yes"/>
      <point x="262" y="218"/>
      <point x="342" y="162"/>
      <point x="502" y="162" type="curve" smooth="yes"/>
    </contour>
  </outline>
</glyph>
<glyph name="uniA4D3" format="2">
  <advance width="1038"/>
  <unicode hex="A4D3"/>
  <outline>
    <contour>
      <point x="934" y="543" type="qcurve"/>
      <point x="934" y="295"/>
      <point x="809" y="154" type="qcurve"/>
      <point x="678" y="4"/>
      <point x="434" y="4" type="qcurve"/>
      <point x="123" y="4" type="line"/>
      <point x="123" y="1087" type="line"/>
      <point x="418" y="1087" type="line"/>
      <point x="662" y="1087"/>
      <point x="801" y="936" type="qcurve"/>
      <point x="934" y="788"/>
    </contour>
    <contour>
      <point x="780" y="537" type="qcurve"/>
      <point x="780" y="717"/>
      <point x="594" y="928"/>
      <point x="416" y="928" type="qcurve"/>
      <point x="281" y="928" type="line"/>
      <point x="281" y="162" type="line"/>
      <point x="418" y="162" type="line"/>
      <point x="588" y="162"/>
      <point x="780" y="365"/>
    </contour>
  </outline>
</glyph>
<glyph name="uniA4D5" format="2">
  <advance width="1075"/>
  <unicode hex="A4D5"/>
  <outline>
    <contour>
      <point x="952" y="4" type="line"/>
      <point x="96" y="4" type="line"/>
      <point x="96" y="164" type="line"/>
      <point x="449" y="164" type="line"/>
      <point x="449" y="1087" type="line"/>
      <point x="608" y="1087" type="line"/>
      <point x="608" y="164" type="line"/>
      <point x="952" y="164" type="line"/>
    </contour>
  </outline>
</glyph>
<glyph name="uniA4D6" format="2">
  <advance width="1141"/>
  <unicode hex="A4D6"/>
  <outline>
    <contour>
      <point x="1032" y="154" type="line"/>
      <point x="821" y="-18"/>
      <point x="598" y="-18" type="qcurve"/>
      <point x="362" y="-18"/>
      <point x="231" y="150" type="qcurve"/>
      <point x="111" y="301"/>
      <point x="111" y="543" type="qcurve"/>
      <point x="111" y="786"/>
      <point x="221" y="934" type="qcurve"/>
      <point x="344" y="1098"/>
      <point x="580" y="1098" type="qcurve"/>
      <point x="907" y="1098"/>
      <point x="1022" y="836" type="qcurve"/>
      <point x="860" y="793" type="line"/>
      <point x="776" y="944"/>
      <point x="594" y="944" type="qcurve"/>
      <point x="438" y="944"/>
      <point x="350" y="821" type="qcurve"/>
      <point x="272" y="713"/>
      <point x="272" y="551" type="qcurve"/>
      <point x="272" y="375"/>
      <point x="350" y="264" type="qcurve"/>
      <point x="438" y="137"/>
      <point x="606" y="137" type="qcurve"/>
      <point x="739" y="137"/>
      <point x="872" y="240" type="qcurve"/>
      <point x="872" y="408" type="line"/>
      <point x="580" y="408" type="line"/>
      <point x="580" y="567" type="line"/>
      <point x="1032" y="567" type="line"/>
    </contour>
  </outline>
</glyph>
<glyph name="uniA4D7" format="2">
  <advance width="1053"/>
  <unicode hex="A4D7"/>
  <outline>
    <contour>
      <point x="965" y="4" type="line"/>
      <point x="762" y="4" type="line"/>
      <point x="436" y="500" type="line"/>
      <point x="301" y="336" type="line"/>
      <point x="301" y="115"/>
      <point x="303" y="4" type="qcurve"/>
      <point x="143" y="4" type="line"/>
      <point x="143" y="1087" type="line"/>
      <point x="303" y="1087" type="line"/>
      <point x="303" y="578" type="line"/>
      <point x="741" y="1087" type="line"/>
      <point x="946" y="1087" type="line"/>
      <point x="547" y="616" type="line"/>
    </contour>
  </outline>
</glyph>
<glyph name="uniA4D9" format="2">
  <advance width="915"/>
  <unicode hex="A4D9"/>
  <outline>
    <contour>
      <point x="772" y="350" type="line"/>
      <point x="772" y="201"/>
      <point x="676" y="94" type="qcurve"/>
      <point x="578" y="-18"/>
      <point x="430" y="-18" type="qcurve"/>
      <point x="285" y="-18"/>
      <point x="88" y="172"/>
      <point x="82" y="317" type="qcurve"/>
      <point x="80" y="365" type="line"/>
      <point x="242" y="365" type="line"/>
      <point x="240" y="348"/>
      <point x="240" y="319" type="qcurve"/>
      <point x="240" y="242"/>
      <point x="346" y="137"/>
      <point x="424" y="137" type="qcurve"/>
      <point x="506" y="137"/>
      <point x="612" y="276"/>
      <point x="612" y="360" type="qcurve"/>
      <point x="612" y="1087" type="line"/>
      <point x="772" y="1087" type="line"/>
    </contour>
  </outline>
</glyph>
<glyph name="uniA4DA" format="2">
  <advance width="1053"/>
  <unicode hex="A4DA"/>
  <outline>
    <contour>
      <point x="958" y="309" type="line"/>
      <point x="913" y="164"/>
      <point x="813" y="78" type="qcurve"/>
      <point x="707" y="-14"/>
      <point x="561" y="-14" type="qcurve"/>
      <point x="324" y="-14"/>
      <point x="209" y="156" type="qcurve"/>
      <point x="111" y="301"/>
      <point x="111" y="549" type="qcurve"/>
      <point x="111" y="782"/>
      <point x="215" y="932" type="qcurve"/>
      <point x="334" y="1104"/>
      <point x="557" y="1104" type="qcurve"/>
      <point x="690" y="1104"/>
      <point x="911" y="946"/>
      <point x="950" y="821" type="qcurve"/>
      <point x="795" y="786" type="line"/>
      <point x="731" y="948"/>
      <point x="565" y="948" type="qcurve"/>
      <point x="270" y="948"/>
      <point x="270" y="539" type="qcurve"/>
      <point x="270" y="377"/>
      <point x="328" y="272" type="qcurve"/>
      <point x="399" y="141"/>
      <point x="549" y="141" type="qcurve"/>
      <point x="641" y="141"/>
      <point x="776" y="258"/>
      <point x="801" y="350" type="qcurve"/>
    </contour>
  </outline>
</glyph>
<glyph name="uniA4DB" format="2">
  <advance width="1075"/>
  <unicode hex="A4DB"/>
  <outline>
    <contour>
      <point x="942" y="535" type="qcurve"/>
      <point x="942" y="324"/>
      <point x="834" y="164" type="qcurve"/>
      <point x="711" y="-18"/>
      <point x="510" y="-18" type="qcurve"/>
      <point x="360" y="-18"/>
      <point x="127" y="162"/>
      <point x="86" y="307" type="qcurve"/>
      <point x="236" y="369" type="line"/>
      <point x="256" y="268"/>
      <point x="414" y="141"/>
      <point x="516" y="141" type="qcurve"/>
      <point x="649" y="141"/>
      <point x="723" y="274" type="qcurve"/>
      <point x="784" y="383"/>
      <point x="784" y="526" type="qcurve"/>
      <point x="784" y="676"/>
      <point x="725" y="795" type="qcurve"/>
      <point x="651" y="942"/>
      <point x="518" y="942" type="qcurve"/>
      <point x="334" y="942"/>
      <point x="270" y="780" type="qcurve"/>
      <point x="111" y="821" type="line"/>
      <point x="147" y="954"/>
      <point x="264" y="1028" type="qcurve"/>
      <point x="373" y="1098"/>
      <point x="516" y="1098" type="qcurve"/>
      <point x="715" y="1098"/>
      <point x="838" y="909" type="qcurve"/>
      <point x="942" y="745"/>
    </contour>
  </outline>
</glyph>
<glyph name="uniA4DC" format="2">
  <advance width="1057"/>
  <unicode hex="A4DC"/>
  <outline>
    <contour>
      <point x="940" y="4" type="line"/>
      <point x="123" y="4" type="line"/>
      <point x="125" y="162" type="line"/>
      <point x="717" y="928" type="line"/>
      <point x="164" y="928" type="line"/>
      <point x="164" y="1087" type="line"/>
      <point x="928" y="1087" type="line"/>
      <point x="928" y="938" type="line"/>
      <point x="629" y="553"/>
      <point x="332" y="164" type="qcurve"/>
      <point x="940" y="164" type="line"/>
    </contour>
  </outline>
</glyph>
<glyph name="uniA4DF" format="2">
  <advance width="1204"/>
  <unicode hex="A4DF"/>
  <outline>
    <contour>
      <point x="1063" y="4" type="line"/>
      <point x="901" y="4" type="line"/>
      <point x="901" y="799" type="line"/>
      <point x="815" y="649"/>
      <point x="684" y="459" type="qcurve"/>
      <point x="659" y="422"/>
      <point x="604" y="422" type="qcurve"/>
      <point x="530" y="422"/>
      <point x="420" y="578" type="qcurve"/>
      <point x="352" y="684"/>
      <point x="285" y="791" type="qcurve"/>
      <point x="285" y="4" type="line"/>
      <point x="127" y="4" type="line"/>
      <point x="127" y="1087" type="line"/>
      <point x="272" y="1087" type="line"/>
      <point x="594" y="612" type="line"/>
      <point x="815" y="924"/>
      <point x="918" y="1087" type="qcurve"/>
      <point x="1063" y="1087" type="line"/>
    </contour>
  </outline>
</glyph>
<glyph name="uniA4E2" format="2">
  <advance width="1036"/>
  <unicode hex="A4E2"/>
  <outline>
    <contour>
      <point x="934" y="313" type="qcurve"/>
      <point x="934" y="141"/>
      <point x="805" y="53" type="qcurve"/>
      <point x="694" y="-23"/>
      <point x="514" y="-23" type="qcurve"/>
      <point x="338" y="-23"/>
      <point x="223" y="61" type="qcurve"/>
      <point x="98" y="152"/>
      <point x="84" y="322" type="qcurve"/>
      <point x="246" y="332" type="line"/>
      <point x="270" y="133"/>
      <point x="524" y="133" type="qcurve"/>
      <point x="618" y="133"/>
      <point x="688" y="172" type="qcurve"/>
      <point x="772" y="219"/>
      <point x="772" y="307" type="qcurve"/>
      <point x="772" y="406"/>
      <point x="582" y="479" type="qcurve"/>
      <point x="440" y="520"/>
      <point x="301" y="563" type="qcurve"/>
      <point x="135" y="643"/>
      <point x="135" y="821" type="qcurve"/>
      <point x="135" y="961"/>
      <point x="260" y="1040" type="qcurve"/>
      <point x="369" y="1106"/>
      <point x="516" y="1106" type="qcurve"/>
      <point x="668" y="1106"/>
      <point x="883" y="954"/>
      <point x="913" y="809" type="qcurve"/>
      <point x="752" y="795" type="line"/>
      <point x="752" y="874"/>
      <point x="666" y="915" type="qcurve"/>
      <point x="598" y="948"/>
      <point x="510" y="948" type="qcurve"/>
      <point x="424" y="948"/>
      <point x="367" y="918" type="qcurve"/>
      <point x="293" y="879"/>
      <point x="293" y="801" type="qcurve"/>
      <point x="293" y="721"/>
      <point x="459" y="676" type="qcurve"/>
      <point x="522" y="657"/>
      <point x="686" y="608" type="qcurve"/>
      <point x="934" y="537"/>
    </contour>
  </outline>
</glyph>
<glyph name="uniA4E3" format="2">
  <advance width="1040"/>
  <unicode hex="A4E3"/>
  <outline>
    <contour>
      <point x="956" y="4" type="line"/>
      <point x="768" y="4" type="line"/>
      <point x="721" y="121"/>
      <point x="653" y="248" type="qcurve"/>
      <point x="565" y="414"/>
      <point x="508" y="459" type="qcurve"/>
      <point x="309" y="459" type="line"/>
      <point x="309" y="4" type="line"/>
      <point x="147" y="4" type="line"/>
      <point x="150" y="391"/>
      <point x="150" y="1083" type="qcurve"/>
      <point x="571" y="1083" type="line"/>
      <point x="725" y="1083"/>
      <point x="823" y="1010" type="qcurve"/>
      <point x="932" y="930"/>
      <point x="932" y="780" type="qcurve"/>
      <point x="932" y="674"/>
      <point x="799" y="492"/>
      <point x="696" y="471" type="qcurve"/>
      <point x="748" y="428"/>
      <point x="834" y="254" type="qcurve"/>
    </contour>
    <contour>
      <point x="774" y="776" type="qcurve"/>
      <point x="774" y="838"/>
      <point x="662" y="924"/>
      <point x="598" y="924" type="qcurve"/>
      <point x="309" y="924" type="line"/>
      <point x="309" y="618" type="line"/>
      <point x="600" y="618" type="line"/>
      <point x="672" y="618"/>
      <point x="774" y="707"/>
    </contour>
  </outline>
</glyph>
<glyph name="uniA4E4" format="2">
  <advance width="1067"/>
  <unicode hex="A4E4"/>
  <outline>
    <contour>
      <point x="924" y="4" type="line"/>
      <point x="500" y="4" type="line"/>
      <point x="346" y="4"/>
      <point x="246" y="76" type="qcurve"/>
      <point x="133" y="156"/>
      <point x="133" y="303" type="qcurve"/>
      <point x="133" y="532"/>
      <point x="373" y="604" type="qcurve"/>
      <point x="287" y="752"/>
      <point x="92" y="1087" type="qcurve"/>
      <point x="285" y="1087" type="line"/>
      <point x="543" y="614" type="line"/>
      <point x="764" y="614" type="line"/>
      <point x="764" y="1087" type="line"/>
      <point x="924" y="1087" type="line"/>
    </contour>
    <contour>
      <point x="764" y="160" type="line"/>
      <point x="764" y="461" type="line"/>
      <point x="492" y="461" type="line"/>
      <point x="416" y="461"/>
      <point x="358" y="424" type="qcurve"/>
      <point x="293" y="381"/>
      <point x="293" y="309" type="qcurve"/>
      <point x="293" y="236"/>
      <point x="358" y="195" type="qcurve"/>
      <point x="414" y="160"/>
      <point x="494" y="160" type="qcurve"/>
    </contour>
  </outline>
</glyph>
<glyph name="uniA4E5" format="2">
  <advance width="1180"/>
  <unicode hex="A4E5"/>
  <outline>
    <contour>
      <point x="1075" y="2" type="line"/>
      <point x="903" y="2" type="line"/>
      <point x="578" y="870" type="line"/>
      <point x="254" y="2" type="line"/>
      <point x="82" y="2" type="line"/>
      <point x="492" y="1085" type="line"/>
      <point x="664" y="1085" type="line"/>
    </contour>
  </outline>
</glyph>
<glyph name="uniA4E6" format="2">
  <advance width="1200"/>
  <unicode hex="A4E6"/>
  <outline>
    <contour>
      <point x="1098" y="1087" type="line"/>
      <point x="674" y="4" type="line"/>
      <point x="516" y="4" type="line"/>
      <point x="102" y="1087" type="line"/>
      <point x="279" y="1087" type="line"/>
      <point x="596" y="252" type="line"/>
      <point x="922" y="1087" type="line"/>
    </contour>
  </outline>
</glyph>
<glyph name="uniA4E8" format="2">
  <advance width="1085"/>
  <unicode hex="A4E8"/>
  <outline>
    <contour>
      <point x="1010" y="559" type="qcurve"/>
      <point x="1010" y="315"/>
      <point x="907" y="164" type="qcurve"/>
      <point x="788" y="-14"/>
      <point x="555" y="-14" type="qcurve"/>
      <point x="238" y="-14"/>
      <point x="125" y="227" type="qcurve"/>
      <point x="295" y="274" type="line"/>
      <point x="397" y="143"/>
      <point x="528" y="143" type="qcurve"/>
      <point x="840" y="143"/>
      <point x="840" y="551" type="qcurve"/>
      <point x="840" y="707"/>
      <point x="774" y="815" type="qcurve"/>
      <point x="696" y="946"/>
      <point x="551" y="946" type="qcurve"/>
      <point x="406" y="946"/>
      <point x="279" y="852" type="qcurve"/>
      <point x="279" y="684" type="line"/>
      <point x="532" y="684" type="line"/>
      <point x="532" y="526" type="line"/>
      <point x="115" y="526" type="line"/>
      <point x="115" y="936" type="line"/>
      <point x="324" y="1106"/>
      <point x="545" y="1106" type="qcurve"/>
      <point x="766" y="1106"/>
      <point x="893" y="938" type="qcurve"/>
      <point x="1010" y="786"/>
    </contour>
  </outline>
</glyph>
<glyph name="uniA4E9" format="2">
  <advance width="977"/>
  <unicode hex="A4E9"/>
  <outline>
    <contour>
      <point x="848" y="729" type="qcurve"/>
      <point x="692" y="729" type="line"/>
      <point x="694" y="739"/>
      <point x="694" y="750" type="qcurve"/>
      <point x="694" y="831"/>
      <point x="588" y="944"/>
      <point x="506" y="944" type="qcurve"/>
      <point x="424" y="944"/>
      <point x="373" y="870" type="qcurve"/>
      <point x="326" y="805"/>
      <point x="326" y="721" type="qcurve"/>
      <point x="326" y="4" type="line"/>
      <point x="158" y="4" type="line"/>
      <point x="158" y="731" type="line"/>
      <point x="158" y="877"/>
      <point x="362" y="1100"/>
      <point x="506" y="1100" type="qcurve"/>
      <point x="664" y="1100"/>
      <point x="756" y="991" type="qcurve"/>
      <point x="842" y="891"/>
    </contour>
  </outline>
</glyph>
<glyph name="uniA4EA" format="2">
  <advance width="1456"/>
  <unicode hex="A4EA"/>
  <outline>
    <contour>
      <point x="1352" y="1085" type="line"/>
      <point x="1118" y="4" type="line"/>
      <point x="928" y="4" type="line"/>
      <point x="731" y="698" type="line"/>
      <point x="528" y="4" type="line"/>
      <point x="340" y="4" type="line"/>
      <point x="100" y="1085" type="line"/>
      <point x="266" y="1085" type="line"/>
      <point x="440" y="291" type="line"/>
      <point x="635" y="911" type="line"/>
      <point x="645" y="944"/>
      <point x="702" y="1016"/>
      <point x="731" y="1016" type="qcurve"/>
      <point x="758" y="1016"/>
      <point x="815" y="940"/>
      <point x="825" y="909" type="qcurve"/>
      <point x="1016" y="295" type="line"/>
      <point x="1180" y="1085" type="line"/>
    </contour>
  </outline>
</glyph>
<glyph name="uniA4EB" format="2">
  <advance width="1116"/>
  <unicode hex="A4EB"/>
  <outline>
    <contour>
      <point x="1024" y="4" type="line"/>
      <point x="827" y="4" type="line"/>
      <point x="735" y="141"/>
      <point x="555" y="432" type="qcurve"/>
      <point x="428" y="236"/>
      <point x="270" y="4" type="qcurve"/>
      <point x="72" y="4" type="line"/>
      <point x="449" y="563" type="line"/>
      <point x="117" y="1087" type="line"/>
      <point x="309" y="1087" type="line"/>
      <point x="557" y="686" type="line"/>
      <point x="584" y="727"/>
      <point x="817" y="1087" type="qcurve"/>
      <point x="1012" y="1087" type="line"/>
      <point x="664" y="563" type="line"/>
    </contour>
  </outline>
</glyph>
<glyph name="uniA4EC" format="2">
  <advance width="1135"/>
  <unicode hex="A4EC"/>
  <outline>
    <contour>
      <point x="1024" y="1087" type="line"/>
      <point x="637" y="459" type="line"/>
      <point x="637" y="4" type="line"/>
      <point x="479" y="4" type="line"/>
      <point x="479" y="459" type="line"/>
      <point x="94" y="1087" type="line"/>
      <point x="287" y="1087" type="line"/>
      <point x="559" y="635" type="line"/>
      <point x="680" y="827"/>
      <point x="836" y="1087" type="qcurve"/>
    </contour>
  </outline>
</glyph>
<glyph name="uniA4ED" format="2">
  <advance width="1040"/>
  <unicode hex="A4ED"/>
  <outline>
    <contour>
      <point x="913" y="4" type="line"/>
      <point x="514" y="4" type="line"/>
      <point x="162" y="4"/>
      <point x="162" y="307" type="qcurve"/>
      <point x="162" y="414"/>
      <point x="283" y="518" type="qcurve"/>
      <point x="115" y="602"/>
      <point x="115" y="768" type="qcurve"/>
      <point x="115" y="1087"/>
      <point x="506" y="1087" type="qcurve"/>
      <point x="913" y="1087" type="line"/>
    </contour>
    <contour>
      <point x="750" y="606" type="line"/>
      <point x="750" y="928" type="line"/>
      <point x="506" y="928" type="line"/>
      <point x="281" y="928"/>
      <point x="281" y="766" type="qcurve"/>
      <point x="281" y="606"/>
      <point x="528" y="606" type="qcurve"/>
    </contour>
    <contour>
      <point x="750" y="164" type="line"/>
      <point x="750" y="449" type="line"/>
      <point x="528" y="449" type="line"/>
      <point x="324" y="449"/>
      <point x="324" y="311" type="qcurve"/>
      <point x="324" y="164"/>
      <point x="530" y="164" type="qcurve"/>
    </contour>
  </outline>
</glyph>
<glyph name="uniA4EE" format="2">
  <advance width="1116"/>
  <unicode hex="A4EE"/>
  <outline>
    <contour>
      <point x="1047" y="4" type="line"/>
      <point x="879" y="4" type="line"/>
      <point x="791" y="215" type="line"/>
      <point x="303" y="215" type="line"/>
      <point x="227" y="4" type="line"/>
      <point x="55" y="4" type="line"/>
      <point x="444" y="1087" type="line"/>
      <point x="621" y="1087" type="line"/>
    </contour>
    <contour>
      <point x="737" y="356" type="line"/>
      <point x="535" y="877" type="line"/>
      <point x="356" y="356" type="line"/>
    </contour>
  </outline>
</glyph>
<glyph name="uniA4EF" format="2">
  <advance width="1182"/>
  <unicode hex="A4EF"/>
  <outline>
    <contour>
      <point x="1087" y="1090" type="line"/>
      <point x="670" y="4" type="line"/>
      <point x="483" y="4" type="line"/>
      <point x="90" y="1090" type="line"/>
      <point x="264" y="1090" type="line"/>
      <point x="338" y="881" type="line"/>
      <point x="834" y="881" type="line"/>
      <point x="909" y="1090" type="line"/>
    </contour>
    <contour>
      <point x="776" y="737" type="curve"/>
      <point x="393" y="737" type="line"/>
      <point x="436" y="616"/>
      <point x="497" y="433"/>
      <point x="578" y="188" type="curve"/>
      <point x="609" y="269"/>
      <point x="675" y="452"/>
    </contour>
  </outline>
</glyph>
<glyph name="uniA4F1" format="2">
  <advance width="991"/>
  <unicode hex="A4F1"/>
  <outline>
    <contour>
      <point x="856" y="4" type="line"/>
      <point x="127" y="4" type="line"/>
      <point x="127" y="160" type="line"/>
      <point x="692" y="160" type="line"/>
      <point x="692" y="483" type="line"/>
      <point x="236" y="483" type="line"/>
      <point x="236" y="643" type="line"/>
      <point x="692" y="643" type="line"/>
      <point x="692" y="928" type="line"/>
      <point x="150" y="928" type="line"/>
      <point x="150" y="1087" type="line"/>
      <point x="856" y="1087" type="line"/>
    </contour>
  </outline>
</glyph>
<glyph name="uniA4F3" format="2">
  <advance width="1122"/>
  <unicode hex="A4F3"/>
  <outline>
    <contour>
      <point x="1030" y="535" type="curve" smooth="yes"/>
      <point x="1030" y="390"/>
      <point x="990" y="264"/>
      <point x="911" y="158" type="curve" smooth="yes"/>
      <point x="824" y="39"/>
      <point x="710" y="-20"/>
      <point x="571" y="-20" type="curve" smooth="yes"/>
      <point x="432" y="-20"/>
      <point x="318" y="39"/>
      <point x="231" y="156" type="curve" smooth="yes"/>
      <point x="151" y="262"/>
      <point x="111" y="387"/>
      <point x="111" y="530" type="curve" smooth="yes"/>
      <point x="111" y="681"/>
      <point x="150" y="810"/>
      <point x="227" y="918" type="curve" smooth="yes"/>
      <point x="313" y="1039"/>
      <point x="428" y="1100"/>
      <point x="573" y="1100" type="curve" smooth="yes"/>
      <point x="714" y="1100"/>
      <point x="827" y="1039"/>
      <point x="913" y="918" type="curve" smooth="yes"/>
      <point x="991" y="809"/>
      <point x="1030" y="681"/>
    </contour>
    <contour>
      <point x="868" y="547" type="curve" smooth="yes"/>
      <point x="868" y="646"/>
      <point x="844" y="734"/>
      <point x="797" y="809" type="curve" smooth="yes"/>
      <point x="742" y="898"/>
      <point x="668" y="942"/>
      <point x="573" y="942" type="curve" smooth="yes"/>
      <point x="479" y="942"/>
      <point x="404" y="898"/>
      <point x="348" y="811" type="curve" smooth="yes"/>
      <point x="299" y="736"/>
      <point x="274" y="648"/>
      <point x="274" y="549" type="curve" smooth="yes"/>
      <point x="274" y="445"/>
      <point x="297" y="355"/>
      <point x="344" y="279" type="curve" smooth="yes"/>
      <point x="399" y="187"/>
      <point x="474" y="141"/>
      <point x="571" y="141" type="curve" smooth="yes"/>
      <point x="668" y="141"/>
      <point x="744" y="186"/>
      <point x="799" y="276" type="curve" smooth="yes"/>
      <point x="845" y="353"/>
      <point x="868" y="443"/>
    </contour>
  </outline>
</glyph>
<glyph name="uniA4F4" format="2">
  <advance width="1075"/>
  <unicode hex="A4F4"/>
  <outline>
    <contour>
      <point x="963" y="438" type="line" smooth="yes"/>
      <point x="963" y="314"/>
      <point x="925" y="208"/>
      <point x="848" y="119" type="curve" smooth="yes"/>
      <point x="769" y="26"/>
      <point x="668" y="-20"/>
      <point x="545" y="-20" type="curve" smooth="yes"/>
      <point x="419" y="-20"/>
      <point x="317" y="26"/>
      <point x="238" y="117" type="curve" smooth="yes"/>
      <point x="161" y="204"/>
      <point x="123" y="311"/>
      <point x="123" y="438" type="curve" smooth="yes"/>
      <point x="123" y="1090" type="line"/>
      <point x="283" y="1090" type="line"/>
      <point x="283" y="434" type="line" smooth="yes"/>
      <point x="283" y="359"/>
      <point x="307" y="292"/>
      <point x="354" y="233" type="curve" smooth="yes"/>
      <point x="405" y="169"/>
      <point x="467" y="137"/>
      <point x="541" y="137" type="curve" smooth="yes"/>
      <point x="614" y="137"/>
      <point x="677" y="169"/>
      <point x="729" y="233" type="curve" smooth="yes"/>
      <point x="778" y="294"/>
      <point x="803" y="362"/>
      <point x="803" y="438" type="curve" smooth="yes"/>
      <point x="803" y="1090" type="line"/>
      <point x="963" y="1090" type="line"/>
    </contour>
  </outline>
</glyph>
<glyph name="uniA4F5" format="2">
  <advance width="1108"/>
  <unicode hex="A4F5"/>
  <outline>
    <contour>
      <point x="993" y="4" type="line"/>
      <point x="834" y="4" type="line"/>
      <point x="834" y="643" type="line"/>
      <point x="834" y="762"/>
      <point x="682" y="944"/>
      <point x="567" y="944" type="qcurve"/>
      <point x="453" y="944"/>
      <point x="379" y="848" type="qcurve"/>
      <point x="311" y="762"/>
      <point x="311" y="643" type="qcurve"/>
      <point x="311" y="4" type="line"/>
      <point x="152" y="4" type="line"/>
      <point x="152" y="643" type="line"/>
      <point x="152" y="840"/>
      <point x="260" y="969" type="qcurve"/>
      <point x="375" y="1106"/>
      <point x="567" y="1106" type="qcurve"/>
      <point x="760" y="1106"/>
      <point x="993" y="838"/>
      <point x="993" y="643" type="qcurve"/>
    </contour>
  </outline>
</glyph>
<glyph name="uniA4F7" format="2">
  <advance width="1047"/>
  <unicode hex="A4F7"/>
  <outline>
    <contour>
      <point x="928" y="4" type="line"/>
      <point x="557" y="4" type="line" smooth="yes"/>
      <point x="420" y="4"/>
      <point x="310" y="62"/>
      <point x="227" y="178" type="curve" smooth="yes"/>
      <point x="152" y="282"/>
      <point x="115" y="405"/>
      <point x="115" y="547" type="curve" smooth="yes"/>
      <point x="115" y="694"/>
      <point x="154" y="819"/>
      <point x="231" y="920" type="curve" smooth="yes"/>
      <point x="316" y="1031"/>
      <point x="430" y="1087"/>
      <point x="573" y="1087" type="curve" smooth="yes"/>
      <point x="928" y="1087" type="line"/>
    </contour>
    <contour>
      <point x="768" y="156" type="line"/>
      <point x="768" y="928" type="line"/>
      <point x="575" y="928" type="line" smooth="yes"/>
      <point x="484" y="928"/>
      <point x="409" y="886"/>
      <point x="352" y="803" type="curve" smooth="yes"/>
      <point x="300" y="729"/>
      <point x="274" y="644"/>
      <point x="274" y="549" type="curve" smooth="yes"/>
      <point x="274" y="452"/>
      <point x="299" y="365"/>
      <point x="348" y="289" type="curve" smooth="yes"/>
      <point x="404" y="200"/>
      <point x="478" y="156"/>
      <point x="571" y="156" type="curve" smooth="yes"/>
    </contour>
  </outline>
</glyph>
<glyph name="uniA4F8" format="2">
  <advance width="506"/>
  <unicode hex="A4F8"/>
  <outline>
    <contour>
      <point x="444" y="121" type="qcurve"/>
      <point x="444" y="61"/>
      <point x="356" y="-25"/>
      <point x="297" y="-25" type="qcurve"/>
      <point x="236" y="-25"/>
      <point x="145" y="59"/>
      <point x="145" y="121" type="qcurve"/>
      <point x="145" y="182"/>
      <point x="236" y="266"/>
      <point x="297" y="266" type="qcurve"/>
      <point x="356" y="266"/>
      <point x="444" y="180"/>
    </contour>
  </outline>
</glyph>
<glyph name="uniA4F9" format="2">
  <advance width="526"/>
  <unicode hex="A4F9"/>
  <outline>
    <contour>
      <point x="457" y="59" type="qcurve"/>
      <point x="457" y="-82"/>
      <point x="285" y="-324"/>
      <point x="152" y="-375" type="qcurve"/>
      <point x="143" y="-287" type="line"/>
      <point x="334" y="-178"/>
      <point x="334" y="-29" type="qcurve"/>
      <point x="334" y="6"/>
      <point x="293" y="6" type="qcurve"/>
      <point x="287" y="6"/>
      <point x="264" y="0"/>
      <point x="258" y="0" type="qcurve"/>
      <point x="211" y="0"/>
      <point x="154" y="82"/>
      <point x="154" y="131" type="qcurve"/>
      <point x="154" y="195"/>
      <point x="233" y="285"/>
      <point x="295" y="285" type="qcurve"/>
      <point x="457" y="285"/>
    </contour>
  </outline>
</glyph>
<glyph name="uniA4FA" format="2">
  <advance width="961"/>
  <unicode hex="A4FA"/>
  <outline>
    <contour>
      <point x="899" y="123" type="qcurve"/>
      <point x="899" y="61"/>
      <point x="817" y="-27"/>
      <point x="756" y="-27" type="qcurve"/>
      <point x="694" y="-27"/>
      <point x="621" y="66"/>
      <point x="621" y="129" type="qcurve"/>
      <point x="621" y="188"/>
      <point x="698" y="279"/>
      <point x="756" y="279" type="qcurve"/>
      <point x="817" y="279"/>
      <point x="899" y="186"/>
    </contour>
    <contour>
      <point x="422" y="129" type="qcurve"/>
      <point x="422" y="66"/>
      <point x="346" y="-27"/>
      <point x="285" y="-27" type="qcurve"/>
      <point x="225" y="-27"/>
      <point x="147" y="61"/>
      <point x="147" y="121" type="qcurve"/>
      <point x="147" y="184"/>
      <point x="225" y="279"/>
      <point x="287" y="279" type="qcurve"/>
      <point x="344" y="279"/>
      <point x="422" y="188"/>
    </contour>
  </outline>
</glyph>
<glyph name="uniA4FB" format="2">
  <advance width="981"/>
  <unicode hex="A4FB"/>
  <outline>
    <contour>
      <point x="918" y="59" type="curve" smooth="yes"/>
      <point x="918" y="-129"/>
      <point x="789" y="-307"/>
      <point x="612" y="-375" type="curve"/>
      <point x="604" y="-287" type="line"/>
      <point x="731" y="-214"/>
      <point x="795" y="-128"/>
      <point x="795" y="-29" type="curve" smooth="yes"/>
      <point x="795" y="-6"/>
      <point x="781" y="6"/>
      <point x="754" y="6" type="curve" smooth="yes"/>
      <point x="750" y="6"/>
      <point x="744" y="5"/>
      <point x="736" y="3" type="curve" smooth="yes"/>
      <point x="729" y="1"/>
      <point x="723" y="0"/>
      <point x="719" y="0" type="curve" smooth="yes"/>
      <point x="656" y="0"/>
      <point x="614" y="66"/>
      <point x="614" y="131" type="curve" smooth="yes"/>
      <point x="614" y="216"/>
      <point x="673" y="285"/>
      <point x="756" y="285" type="curve" smooth="yes"/>
      <point x="864" y="285"/>
      <point x="918" y="210"/>
    </contour>
    <contour>
      <point x="428" y="143" type="curve" smooth="yes"/>
      <point x="428" y="62"/>
      <point x="366" y="-14"/>
      <point x="270" y="-14" type="curve" smooth="yes"/>
      <point x="191" y="-14"/>
      <point x="135" y="64"/>
      <point x="135" y="143" type="curve" smooth="yes"/>
      <point x="135" y="223"/>
      <point x="194" y="299"/>
      <point x="270" y="299" type="curve" smooth="yes"/>
      <point x="363" y="299"/>
      <point x="428" y="223"/>
    </contour>
  </outline>
</glyph>
<glyph name="uniA4FC" format="2">
  <advance width="559"/>
  <unicode hex="A4FC"/>
  <outline>
    <contour>
      <point x="446" y="702" type="curve" smooth="yes"/>
      <point x="446" y="621"/>
      <point x="378" y="555"/>
      <point x="297" y="555" type="curve" smooth="yes"/>
      <point x="212" y="555"/>
      <point x="152" y="618"/>
      <point x="152" y="702" type="curve" smooth="yes"/>
      <point x="152" y="782"/>
      <point x="218" y="850"/>
      <point x="297" y="850" type="curve" smooth="yes"/>
      <point x="378" y="850"/>
      <point x="446" y="785"/>
    </contour>
    <contour>
      <point x="457" y="59" type="curve" smooth="yes"/>
      <point x="457" y="-129"/>
      <point x="329" y="-307"/>
      <point x="152" y="-375" type="curve"/>
      <point x="143" y="-287" type="line"/>
      <point x="270" y="-214"/>
      <point x="334" y="-128"/>
      <point x="334" y="-29" type="curve" smooth="yes"/>
      <point x="334" y="-6"/>
      <point x="320" y="6"/>
      <point x="293" y="6" type="curve" smooth="yes"/>
      <point x="289" y="6"/>
      <point x="283" y="5"/>
      <point x="276" y="3" type="curve" smooth="yes"/>
      <point x="268" y="1"/>
      <point x="262" y="0"/>
      <point x="258" y="0" type="curve" smooth="yes"/>
      <point x="195" y="0"/>
      <point x="154" y="66"/>
      <point x="154" y="131" type="curve" smooth="yes"/>
      <point x="154" y="216"/>
      <point x="212" y="285"/>
      <point x="295" y="285" type="curve" smooth="yes"/>
      <point x="403" y="285"/>
      <point x="457" y="210"/>
    </contour>
  </outline>
</glyph>
<glyph name="uniA4FD" format="2">
  <advance width="569"/>
  <unicode hex="A4FD"/>
  <outline>
    <contour>
      <point x="451" y="694" type="qcurve"/>
      <point x="451" y="631"/>
      <point x="358" y="549"/>
      <point x="295" y="549" type="qcurve"/>
      <point x="236" y="549"/>
      <point x="152" y="635"/>
      <point x="152" y="694" type="qcurve"/>
      <point x="152" y="754"/>
      <point x="244" y="840"/>
      <point x="303" y="840" type="qcurve"/>
      <point x="358" y="840"/>
      <point x="451" y="750"/>
    </contour>
    <contour>
      <point x="451" y="141" type="qcurve"/>
      <point x="451" y="78"/>
      <point x="358" y="-4"/>
      <point x="295" y="-4" type="qcurve"/>
      <point x="236" y="-4"/>
      <point x="152" y="82"/>
      <point x="152" y="141" type="qcurve"/>
      <point x="152" y="201"/>
      <point x="244" y="287"/>
      <point x="303" y="287" type="qcurve"/>
      <point x="358" y="287"/>
      <point x="451" y="197"/>
    </contour>
  </outline>
</glyph>
<glyph name="uniA4FE" format="2">
  <advance width="1186"/>
  <unicode hex="A4FE"/>
  <outline>
    <contour>
      <point x="1100" y="127" type="qcurve"/>
      <point x="1100" y="63"/>
      <point x="1018" y="-25"/>
      <point x="954" y="-25" type="qcurve"/>
      <point x="891" y="-25"/>
      <point x="807" y="59"/>
      <point x="807" y="123" type="qcurve"/>
      <point x="807" y="186"/>
      <point x="891" y="270"/>
      <point x="954" y="270" type="qcurve"/>
      <point x="1014" y="270"/>
      <point x="1100" y="186"/>
    </contour>
    <contour>
      <point x="743" y="438" type="line"/>
      <point x="201" y="438" type="line"/>
      <point x="201" y="594" type="line"/>
      <point x="743" y="594" type="line"/>
    </contour>
  </outline>
</glyph>
